%TF.GenerationSoftware,KiCad,Pcbnew,10.0.0-10.0.0~ubuntu24.04.1*%
%TF.CreationDate,2026-04-01T14:08:50+02:00*%
%TF.ProjectId,Sicherungskarte,53696368-6572-4756-9e67-736b61727465,V1.0*%
%TF.SameCoordinates,Original*%
%TF.FileFunction,Legend,Bot*%
%TF.FilePolarity,Positive*%
%FSLAX46Y46*%
G04 Gerber Fmt 4.6, Leading zero omitted, Abs format (unit mm)*
G04 Created by KiCad (PCBNEW 10.0.0-10.0.0~ubuntu24.04.1) date 2026-04-01 14:08:50*
%MOMM*%
%LPD*%
G01*
G04 APERTURE LIST*
%ADD10C,0.000000*%
%ADD11C,0.100000*%
G04 APERTURE END LIST*
D10*
G36*
X115724138Y-78500000D02*
G01*
X115379310Y-78500000D01*
X115379310Y-78155172D01*
X115724138Y-78155172D01*
X115724138Y-78500000D01*
G37*
G36*
X114344828Y-76775862D02*
G01*
X114689655Y-76775862D01*
X114689655Y-77465517D01*
X115034483Y-77465517D01*
X115034483Y-77810345D01*
X115379310Y-77810345D01*
X115379310Y-77465517D01*
X116068966Y-77465517D01*
X116068966Y-77810345D01*
X116413793Y-77810345D01*
X116413793Y-78155172D01*
X116413793Y-78500000D01*
X116068966Y-78500000D01*
X116068966Y-78155172D01*
X115724138Y-78155172D01*
X115724138Y-77810345D01*
X115379310Y-77810345D01*
X115379310Y-78155172D01*
X114689655Y-78155172D01*
X114689655Y-77810345D01*
X114344828Y-77810345D01*
X114344828Y-78155172D01*
X114000000Y-78155172D01*
X114000000Y-77810345D01*
X114000000Y-77465517D01*
X114000000Y-76775862D01*
X114000000Y-76431034D01*
X114344828Y-76431034D01*
X114344828Y-76775862D01*
G37*
G36*
X117448276Y-78500000D02*
G01*
X116758621Y-78500000D01*
X116758621Y-78155172D01*
X117448276Y-78155172D01*
X117448276Y-78500000D01*
G37*
G36*
X120206897Y-78155172D02*
G01*
X119862069Y-78155172D01*
X119862069Y-78500000D01*
X119172414Y-78500000D01*
X119172414Y-78155172D01*
X119517241Y-78155172D01*
X119517241Y-77810345D01*
X120206897Y-77810345D01*
X120206897Y-78155172D01*
G37*
G36*
X121241379Y-78155172D02*
G01*
X121241379Y-78500000D01*
X120896552Y-78500000D01*
X120896552Y-78155172D01*
X120551724Y-78155172D01*
X120551724Y-77810345D01*
X121241379Y-77810345D01*
X121241379Y-78155172D01*
G37*
G36*
X123310345Y-77810345D02*
G01*
X122275862Y-77810345D01*
X122275862Y-76775862D01*
X123310345Y-76775862D01*
X123310345Y-77810345D01*
G37*
G36*
X124000000Y-78155172D02*
G01*
X124000000Y-78500000D01*
X121586207Y-78500000D01*
X121586207Y-78155172D01*
X121586207Y-76431034D01*
X121931034Y-76431034D01*
X121931034Y-78155172D01*
X123655172Y-78155172D01*
X123655172Y-76431034D01*
X121931034Y-76431034D01*
X121586207Y-76431034D01*
X121586207Y-76086207D01*
X124000000Y-76086207D01*
X124000000Y-76431034D01*
X124000000Y-78155172D01*
G37*
G36*
X118137931Y-77810345D02*
G01*
X117793103Y-77810345D01*
X117793103Y-78155172D01*
X117448276Y-78155172D01*
X117448276Y-77810345D01*
X117448276Y-77465517D01*
X118137931Y-77465517D01*
X118137931Y-77810345D01*
G37*
G36*
X116413793Y-76431034D02*
G01*
X116068966Y-76431034D01*
X116068966Y-76086207D01*
X116413793Y-76086207D01*
X116413793Y-76431034D01*
G37*
G36*
X117103448Y-76086207D02*
G01*
X117448276Y-76086207D01*
X117448276Y-76431034D01*
X117793103Y-76431034D01*
X117793103Y-76086207D01*
X118482759Y-76086207D01*
X118482759Y-75741379D01*
X117793103Y-75741379D01*
X117793103Y-75396552D01*
X118137931Y-75396552D01*
X118137931Y-75051724D01*
X118482759Y-75051724D01*
X118482759Y-75396552D01*
X118827586Y-75396552D01*
X118827586Y-75051724D01*
X119517241Y-75051724D01*
X119517241Y-74706897D01*
X120551724Y-74706897D01*
X120551724Y-75051724D01*
X120551724Y-75396552D01*
X120896552Y-75396552D01*
X120896552Y-75741379D01*
X120551724Y-75741379D01*
X120551724Y-76086207D01*
X120206897Y-76086207D01*
X120206897Y-76431034D01*
X120206897Y-77120690D01*
X120896552Y-77120690D01*
X120896552Y-76775862D01*
X121241379Y-76775862D01*
X121241379Y-77120690D01*
X121241379Y-77465517D01*
X120551724Y-77465517D01*
X120551724Y-77810345D01*
X120206897Y-77810345D01*
X120206897Y-77465517D01*
X119862069Y-77465517D01*
X119862069Y-77120690D01*
X119517241Y-77120690D01*
X119517241Y-76431034D01*
X119862069Y-76431034D01*
X119862069Y-76086207D01*
X119862069Y-75741379D01*
X120206897Y-75741379D01*
X120206897Y-75396552D01*
X119172414Y-75396552D01*
X119172414Y-75741379D01*
X119172414Y-76086207D01*
X118827586Y-76086207D01*
X118827586Y-76431034D01*
X119172414Y-76431034D01*
X119172414Y-76775862D01*
X118827586Y-76775862D01*
X118827586Y-77120690D01*
X118827586Y-77465517D01*
X118827586Y-78155172D01*
X118482759Y-78155172D01*
X118482759Y-77465517D01*
X118137931Y-77465517D01*
X118137931Y-77120690D01*
X118482759Y-77120690D01*
X118482759Y-76775862D01*
X117448276Y-76775862D01*
X117448276Y-77120690D01*
X116758621Y-77120690D01*
X116758621Y-77465517D01*
X117103448Y-77465517D01*
X117103448Y-77810345D01*
X116413793Y-77810345D01*
X116413793Y-77465517D01*
X116413793Y-77120690D01*
X115034483Y-77120690D01*
X115034483Y-76775862D01*
X115379310Y-76775862D01*
X115379310Y-76431034D01*
X115034483Y-76431034D01*
X115034483Y-75741379D01*
X115724138Y-75741379D01*
X115724138Y-76431034D01*
X115724138Y-76775862D01*
X116758621Y-76775862D01*
X116758621Y-76431034D01*
X116758621Y-76086207D01*
X116758621Y-75741379D01*
X115724138Y-75741379D01*
X115034483Y-75741379D01*
X114344828Y-75741379D01*
X114344828Y-75396552D01*
X114689655Y-75396552D01*
X114689655Y-75051724D01*
X115034483Y-75051724D01*
X115034483Y-74706897D01*
X115379310Y-74706897D01*
X115379310Y-74362069D01*
X115724138Y-74362069D01*
X115724138Y-74706897D01*
X115724138Y-75051724D01*
X115379310Y-75051724D01*
X115379310Y-75396552D01*
X116068966Y-75396552D01*
X116068966Y-75051724D01*
X116413793Y-75051724D01*
X116413793Y-75396552D01*
X117103448Y-75396552D01*
X117103448Y-75741379D01*
X117103448Y-76086207D01*
G37*
G36*
X119517241Y-77465517D02*
G01*
X119172414Y-77465517D01*
X119172414Y-77120690D01*
X119517241Y-77120690D01*
X119517241Y-77465517D01*
G37*
G36*
X120896552Y-76775862D02*
G01*
X120551724Y-76775862D01*
X120551724Y-76431034D01*
X120896552Y-76431034D01*
X120896552Y-76775862D01*
G37*
G36*
X119517241Y-76431034D02*
G01*
X119172414Y-76431034D01*
X119172414Y-76086207D01*
X119517241Y-76086207D01*
X119517241Y-76431034D01*
G37*
G36*
X121241379Y-76086207D02*
G01*
X120896552Y-76086207D01*
X120896552Y-75741379D01*
X121241379Y-75741379D01*
X121241379Y-76086207D01*
G37*
G36*
X122620690Y-75051724D02*
G01*
X122620690Y-75396552D01*
X122275862Y-75396552D01*
X122275862Y-75741379D01*
X121586207Y-75741379D01*
X121586207Y-75396552D01*
X121931034Y-75396552D01*
X121931034Y-75051724D01*
X122275862Y-75051724D01*
X122275862Y-74362069D01*
X122620690Y-74362069D01*
X122620690Y-75051724D01*
G37*
G36*
X122965517Y-75741379D02*
G01*
X122620690Y-75741379D01*
X122620690Y-75396552D01*
X122965517Y-75396552D01*
X122965517Y-75741379D01*
G37*
G36*
X122620690Y-73672414D02*
G01*
X122965517Y-73672414D01*
X122965517Y-73327586D01*
X124000000Y-73327586D01*
X124000000Y-73672414D01*
X123310345Y-73672414D01*
X123310345Y-74017241D01*
X124000000Y-74017241D01*
X124000000Y-74362069D01*
X124000000Y-74706897D01*
X124000000Y-75051724D01*
X124000000Y-75396552D01*
X124000000Y-75741379D01*
X123310345Y-75741379D01*
X123310345Y-75396552D01*
X122965517Y-75396552D01*
X122965517Y-75051724D01*
X123310345Y-75051724D01*
X123310345Y-74706897D01*
X122965517Y-74706897D01*
X122965517Y-74362069D01*
X122620690Y-74362069D01*
X122620690Y-74017241D01*
X122275862Y-74017241D01*
X122275862Y-74362069D01*
X120896552Y-74362069D01*
X120896552Y-74017241D01*
X120896552Y-73672414D01*
X121586207Y-73672414D01*
X121586207Y-74017241D01*
X122275862Y-74017241D01*
X122275862Y-73672414D01*
X122275862Y-73327586D01*
X122620690Y-73327586D01*
X122620690Y-73672414D01*
G37*
G36*
X117103448Y-73327586D02*
G01*
X117448276Y-73327586D01*
X117448276Y-73672414D01*
X117448276Y-74017241D01*
X117448276Y-74362069D01*
X118827586Y-74362069D01*
X118827586Y-74706897D01*
X118827586Y-75051724D01*
X118482759Y-75051724D01*
X118482759Y-74706897D01*
X118137931Y-74706897D01*
X118137931Y-75051724D01*
X117448276Y-75051724D01*
X117448276Y-75396552D01*
X117103448Y-75396552D01*
X117103448Y-75051724D01*
X117103448Y-74706897D01*
X117103448Y-74362069D01*
X116413793Y-74362069D01*
X116413793Y-74017241D01*
X117103448Y-74017241D01*
X117103448Y-73672414D01*
X116068966Y-73672414D01*
X116068966Y-74017241D01*
X115379310Y-74017241D01*
X115379310Y-73672414D01*
X115724138Y-73672414D01*
X116068966Y-73672414D01*
X116068966Y-73327586D01*
X115724138Y-73327586D01*
X115724138Y-73672414D01*
X115379310Y-73672414D01*
X115379310Y-73327586D01*
X115034483Y-73327586D01*
X115034483Y-74017241D01*
X114689655Y-74017241D01*
X114689655Y-73327586D01*
X114344828Y-73327586D01*
X114344828Y-74017241D01*
X114000000Y-74017241D01*
X114000000Y-73327586D01*
X114000000Y-72982759D01*
X114000000Y-72293103D01*
X114344828Y-72293103D01*
X114344828Y-72982759D01*
X115724138Y-72982759D01*
X115724138Y-72637931D01*
X116413793Y-72637931D01*
X116413793Y-72982759D01*
X116413793Y-73327586D01*
X116758621Y-73327586D01*
X116758621Y-72637931D01*
X116413793Y-72637931D01*
X115724138Y-72637931D01*
X115034483Y-72637931D01*
X115034483Y-72293103D01*
X115724138Y-72293103D01*
X115724138Y-71948276D01*
X115379310Y-71948276D01*
X115379310Y-71603448D01*
X116068966Y-71603448D01*
X116068966Y-71948276D01*
X116068966Y-72293103D01*
X117448276Y-72293103D01*
X117448276Y-72637931D01*
X117103448Y-72637931D01*
X117103448Y-73327586D01*
G37*
G36*
X121241379Y-75396552D02*
G01*
X120896552Y-75396552D01*
X120896552Y-75051724D01*
X121241379Y-75051724D01*
X121241379Y-75396552D01*
G37*
G36*
X114344828Y-75051724D02*
G01*
X114000000Y-75051724D01*
X114000000Y-74706897D01*
X114344828Y-74706897D01*
X114344828Y-75051724D01*
G37*
G36*
X121931034Y-75051724D02*
G01*
X121241379Y-75051724D01*
X121241379Y-74706897D01*
X121931034Y-74706897D01*
X121931034Y-75051724D01*
G37*
G36*
X115034483Y-74706897D02*
G01*
X114344828Y-74706897D01*
X114344828Y-74362069D01*
X115034483Y-74362069D01*
X115034483Y-74706897D01*
G37*
G36*
X119517241Y-74706897D02*
G01*
X119172414Y-74706897D01*
X119172414Y-74017241D01*
X119517241Y-74017241D01*
X119517241Y-74706897D01*
G37*
G36*
X120896552Y-74706897D02*
G01*
X120551724Y-74706897D01*
X120551724Y-74362069D01*
X120896552Y-74362069D01*
X120896552Y-74706897D01*
G37*
G36*
X115379310Y-74362069D02*
G01*
X115034483Y-74362069D01*
X115034483Y-74017241D01*
X115379310Y-74017241D01*
X115379310Y-74362069D01*
G37*
G36*
X120206897Y-74362069D02*
G01*
X119862069Y-74362069D01*
X119862069Y-74017241D01*
X120206897Y-74017241D01*
X120206897Y-74362069D01*
G37*
G36*
X119517241Y-73327586D02*
G01*
X119862069Y-73327586D01*
X119862069Y-73672414D01*
X118827586Y-73672414D01*
X118827586Y-74017241D01*
X118482759Y-74017241D01*
X118482759Y-73672414D01*
X118482759Y-73327586D01*
X119172414Y-73327586D01*
X119172414Y-72982759D01*
X119517241Y-72982759D01*
X119517241Y-73327586D01*
G37*
G36*
X120551724Y-74017241D02*
G01*
X120206897Y-74017241D01*
X120206897Y-73327586D01*
X120551724Y-73327586D01*
X120551724Y-74017241D01*
G37*
G36*
X121931034Y-73672414D02*
G01*
X121586207Y-73672414D01*
X121586207Y-73327586D01*
X121931034Y-73327586D01*
X121931034Y-73672414D01*
G37*
G36*
X118482759Y-73327586D02*
G01*
X117448276Y-73327586D01*
X117448276Y-72982759D01*
X118482759Y-72982759D01*
X118482759Y-73327586D01*
G37*
G36*
X120551724Y-72293103D02*
G01*
X120896552Y-72293103D01*
X120896552Y-72637931D01*
X120896552Y-72982759D01*
X120551724Y-72982759D01*
X120551724Y-72637931D01*
X120206897Y-72637931D01*
X120206897Y-72982759D01*
X120206897Y-73327586D01*
X119862069Y-73327586D01*
X119862069Y-72982759D01*
X119517241Y-72982759D01*
X119517241Y-72637931D01*
X119862069Y-72637931D01*
X119862069Y-72293103D01*
X119862069Y-71948276D01*
X120551724Y-71948276D01*
X120551724Y-72293103D01*
G37*
G36*
X121931034Y-72982759D02*
G01*
X121586207Y-72982759D01*
X121586207Y-73327586D01*
X120896552Y-73327586D01*
X120896552Y-72982759D01*
X121241379Y-72982759D01*
X121241379Y-72637931D01*
X121931034Y-72637931D01*
X121931034Y-72982759D01*
G37*
G36*
X122275862Y-73327586D02*
G01*
X121931034Y-73327586D01*
X121931034Y-72982759D01*
X122275862Y-72982759D01*
X122275862Y-73327586D01*
G37*
G36*
X118827586Y-71948276D02*
G01*
X119517241Y-71948276D01*
X119517241Y-72293103D01*
X118827586Y-72293103D01*
X118827586Y-72637931D01*
X118827586Y-72982759D01*
X118482759Y-72982759D01*
X118482759Y-72637931D01*
X117793103Y-72637931D01*
X117793103Y-72293103D01*
X117793103Y-71948276D01*
X118482759Y-71948276D01*
X118482759Y-71603448D01*
X118827586Y-71603448D01*
X118827586Y-71948276D01*
G37*
G36*
X122965517Y-72637931D02*
G01*
X123310345Y-72637931D01*
X123310345Y-72982759D01*
X122620690Y-72982759D01*
X122620690Y-72637931D01*
X122620690Y-72293103D01*
X122965517Y-72293103D01*
X122965517Y-72637931D01*
G37*
G36*
X122275862Y-72637931D02*
G01*
X121931034Y-72637931D01*
X121931034Y-72293103D01*
X122275862Y-72293103D01*
X122275862Y-72637931D01*
G37*
G36*
X123655172Y-72293103D02*
G01*
X123655172Y-72637931D01*
X123310345Y-72637931D01*
X123310345Y-72293103D01*
X122965517Y-72293103D01*
X122965517Y-71948276D01*
X123655172Y-71948276D01*
X123655172Y-72293103D01*
G37*
G36*
X115034483Y-71948276D02*
G01*
X115034483Y-72293103D01*
X114689655Y-72293103D01*
X114689655Y-71948276D01*
X114344828Y-71948276D01*
X114344828Y-71603448D01*
X115034483Y-71603448D01*
X115034483Y-71948276D01*
G37*
G36*
X120551724Y-70913793D02*
G01*
X120551724Y-71258621D01*
X120896552Y-71258621D01*
X120896552Y-71603448D01*
X121586207Y-71603448D01*
X121586207Y-71948276D01*
X121241379Y-71948276D01*
X121241379Y-72293103D01*
X120896552Y-72293103D01*
X120896552Y-71948276D01*
X120551724Y-71948276D01*
X120551724Y-71603448D01*
X119862069Y-71603448D01*
X119862069Y-71948276D01*
X119517241Y-71948276D01*
X119517241Y-71603448D01*
X119517241Y-71258621D01*
X119862069Y-71258621D01*
X119862069Y-70913793D01*
X120206897Y-70913793D01*
X120206897Y-70224138D01*
X120551724Y-70224138D01*
X120551724Y-70913793D01*
G37*
G36*
X121931034Y-72293103D02*
G01*
X121586207Y-72293103D01*
X121586207Y-71948276D01*
X121931034Y-71948276D01*
X121931034Y-72293103D01*
G37*
G36*
X116758621Y-71948276D02*
G01*
X116413793Y-71948276D01*
X116413793Y-71603448D01*
X116758621Y-71603448D01*
X116758621Y-71948276D01*
G37*
G36*
X117103448Y-70913793D02*
G01*
X117448276Y-70913793D01*
X117448276Y-70568966D01*
X117793103Y-70568966D01*
X117793103Y-70913793D01*
X117793103Y-71258621D01*
X117448276Y-71258621D01*
X117448276Y-71603448D01*
X117793103Y-71603448D01*
X117793103Y-71948276D01*
X117103448Y-71948276D01*
X117103448Y-71603448D01*
X116758621Y-71603448D01*
X116758621Y-71258621D01*
X116758621Y-70913793D01*
X116758621Y-70568966D01*
X117103448Y-70568966D01*
X117103448Y-70913793D01*
G37*
G36*
X122275862Y-71948276D02*
G01*
X121931034Y-71948276D01*
X121931034Y-71603448D01*
X122275862Y-71603448D01*
X122275862Y-71948276D01*
G37*
G36*
X122965517Y-71603448D02*
G01*
X122965517Y-71948276D01*
X122620690Y-71948276D01*
X122620690Y-71603448D01*
X122275862Y-71603448D01*
X122275862Y-71258621D01*
X122965517Y-71258621D01*
X122965517Y-71603448D01*
G37*
G36*
X124000000Y-71603448D02*
G01*
X124000000Y-71948276D01*
X123655172Y-71948276D01*
X123655172Y-71603448D01*
X123310345Y-71603448D01*
X123310345Y-71258621D01*
X124000000Y-71258621D01*
X124000000Y-71603448D01*
G37*
G36*
X114344828Y-71603448D02*
G01*
X114000000Y-71603448D01*
X114000000Y-71258621D01*
X114344828Y-71258621D01*
X114344828Y-71603448D01*
G37*
G36*
X116413793Y-71603448D02*
G01*
X116068966Y-71603448D01*
X116068966Y-71258621D01*
X116413793Y-71258621D01*
X116413793Y-71603448D01*
G37*
G36*
X118482759Y-71603448D02*
G01*
X117793103Y-71603448D01*
X117793103Y-71258621D01*
X118482759Y-71258621D01*
X118482759Y-71603448D01*
G37*
G36*
X119172414Y-71603448D02*
G01*
X118827586Y-71603448D01*
X118827586Y-71258621D01*
X119172414Y-71258621D01*
X119172414Y-71603448D01*
G37*
G36*
X121931034Y-71603448D02*
G01*
X121586207Y-71603448D01*
X121586207Y-71258621D01*
X121931034Y-71258621D01*
X121931034Y-71603448D01*
G37*
G36*
X119517241Y-71258621D02*
G01*
X119172414Y-71258621D01*
X119172414Y-70913793D01*
X119517241Y-70913793D01*
X119517241Y-71258621D01*
G37*
G36*
X121241379Y-71258621D02*
G01*
X120896552Y-71258621D01*
X120896552Y-70568966D01*
X121241379Y-70568966D01*
X121241379Y-71258621D01*
G37*
G36*
X115724138Y-70224138D02*
G01*
X114689655Y-70224138D01*
X114689655Y-69189655D01*
X115724138Y-69189655D01*
X115724138Y-70224138D01*
G37*
G36*
X116413793Y-70568966D02*
G01*
X116413793Y-70913793D01*
X114000000Y-70913793D01*
X114000000Y-70568966D01*
X114000000Y-68844828D01*
X114344828Y-68844828D01*
X114344828Y-70568966D01*
X116068966Y-70568966D01*
X116068966Y-68844828D01*
X114344828Y-68844828D01*
X114000000Y-68844828D01*
X114000000Y-68500000D01*
X116413793Y-68500000D01*
X116413793Y-68844828D01*
X116413793Y-70568966D01*
G37*
G36*
X118482759Y-70913793D02*
G01*
X118137931Y-70913793D01*
X118137931Y-70568966D01*
X118482759Y-70568966D01*
X118482759Y-70913793D01*
G37*
G36*
X119172414Y-70913793D02*
G01*
X118827586Y-70913793D01*
X118827586Y-69879310D01*
X119172414Y-69879310D01*
X119172414Y-70913793D01*
G37*
G36*
X119862069Y-70913793D02*
G01*
X119517241Y-70913793D01*
X119517241Y-70224138D01*
X119862069Y-70224138D01*
X119862069Y-70913793D01*
G37*
G36*
X123310345Y-70224138D02*
G01*
X122275862Y-70224138D01*
X122275862Y-69189655D01*
X123310345Y-69189655D01*
X123310345Y-70224138D01*
G37*
G36*
X124000000Y-70568966D02*
G01*
X124000000Y-70913793D01*
X121586207Y-70913793D01*
X121586207Y-70568966D01*
X121586207Y-68844828D01*
X121931034Y-68844828D01*
X121931034Y-70568966D01*
X123655172Y-70568966D01*
X123655172Y-68844828D01*
X121931034Y-68844828D01*
X121586207Y-68844828D01*
X121586207Y-68500000D01*
X124000000Y-68500000D01*
X124000000Y-68844828D01*
X124000000Y-70568966D01*
G37*
G36*
X118137931Y-70568966D02*
G01*
X117793103Y-70568966D01*
X117793103Y-70224138D01*
X118137931Y-70224138D01*
X118137931Y-70568966D01*
G37*
G36*
X117793103Y-70224138D02*
G01*
X117103448Y-70224138D01*
X117103448Y-69879310D01*
X117793103Y-69879310D01*
X117793103Y-70224138D01*
G37*
G36*
X118482759Y-69534483D02*
G01*
X118482759Y-69879310D01*
X118482759Y-70224138D01*
X118137931Y-70224138D01*
X118137931Y-69879310D01*
X117793103Y-69879310D01*
X117793103Y-69534483D01*
X118137931Y-69534483D01*
X118137931Y-68844828D01*
X118482759Y-68844828D01*
X118482759Y-69534483D01*
G37*
G36*
X120206897Y-70224138D02*
G01*
X119862069Y-70224138D01*
X119862069Y-69879310D01*
X120206897Y-69879310D01*
X120206897Y-70224138D01*
G37*
G36*
X120896552Y-70224138D02*
G01*
X120551724Y-70224138D01*
X120551724Y-69879310D01*
X120896552Y-69879310D01*
X120896552Y-70224138D01*
G37*
G36*
X117448276Y-69189655D02*
G01*
X117793103Y-69189655D01*
X117793103Y-69534483D01*
X117103448Y-69534483D01*
X117103448Y-69879310D01*
X116758621Y-69879310D01*
X116758621Y-69534483D01*
X116758621Y-69189655D01*
X117103448Y-69189655D01*
X117103448Y-68844828D01*
X117448276Y-68844828D01*
X117448276Y-69189655D01*
G37*
G36*
X119172414Y-68844828D02*
G01*
X119517241Y-68844828D01*
X119517241Y-69189655D01*
X119862069Y-69189655D01*
X119862069Y-69879310D01*
X119172414Y-69879310D01*
X119172414Y-69189655D01*
X118827586Y-69189655D01*
X118827586Y-68844828D01*
X118827586Y-68500000D01*
X119172414Y-68500000D01*
X119172414Y-68844828D01*
G37*
G36*
X120896552Y-69189655D02*
G01*
X120551724Y-69189655D01*
X120551724Y-69534483D01*
X120206897Y-69534483D01*
X120206897Y-69189655D01*
X120206897Y-68844828D01*
X120896552Y-68844828D01*
X120896552Y-69189655D01*
G37*
G36*
X117793103Y-68844828D02*
G01*
X117448276Y-68844828D01*
X117448276Y-68500000D01*
X117793103Y-68500000D01*
X117793103Y-68844828D01*
G37*
G36*
X120206897Y-68844828D02*
G01*
X119517241Y-68844828D01*
X119517241Y-68500000D01*
X120206897Y-68500000D01*
X120206897Y-68844828D01*
G37*
G36*
X121241379Y-68844828D02*
G01*
X120896552Y-68844828D01*
X120896552Y-68500000D01*
X121241379Y-68500000D01*
X121241379Y-68844828D01*
G37*
D11*
X137696115Y-84872419D02*
X137696115Y-83872419D01*
X137267544Y-84872419D02*
X137267544Y-84348609D01*
X137267544Y-84348609D02*
X137315163Y-84253371D01*
X137315163Y-84253371D02*
X137410401Y-84205752D01*
X137410401Y-84205752D02*
X137553258Y-84205752D01*
X137553258Y-84205752D02*
X137648496Y-84253371D01*
X137648496Y-84253371D02*
X137696115Y-84300990D01*
X136934210Y-84205752D02*
X136553258Y-84205752D01*
X136791353Y-83872419D02*
X136791353Y-84729561D01*
X136791353Y-84729561D02*
X136743734Y-84824800D01*
X136743734Y-84824800D02*
X136648496Y-84872419D01*
X136648496Y-84872419D02*
X136553258Y-84872419D01*
X136362781Y-84205752D02*
X135981829Y-84205752D01*
X136219924Y-83872419D02*
X136219924Y-84729561D01*
X136219924Y-84729561D02*
X136172305Y-84824800D01*
X136172305Y-84824800D02*
X136077067Y-84872419D01*
X136077067Y-84872419D02*
X135981829Y-84872419D01*
X135648495Y-84205752D02*
X135648495Y-85205752D01*
X135648495Y-84253371D02*
X135553257Y-84205752D01*
X135553257Y-84205752D02*
X135362781Y-84205752D01*
X135362781Y-84205752D02*
X135267543Y-84253371D01*
X135267543Y-84253371D02*
X135219924Y-84300990D01*
X135219924Y-84300990D02*
X135172305Y-84396228D01*
X135172305Y-84396228D02*
X135172305Y-84681942D01*
X135172305Y-84681942D02*
X135219924Y-84777180D01*
X135219924Y-84777180D02*
X135267543Y-84824800D01*
X135267543Y-84824800D02*
X135362781Y-84872419D01*
X135362781Y-84872419D02*
X135553257Y-84872419D01*
X135553257Y-84872419D02*
X135648495Y-84824800D01*
X134791352Y-84824800D02*
X134696114Y-84872419D01*
X134696114Y-84872419D02*
X134505638Y-84872419D01*
X134505638Y-84872419D02*
X134410400Y-84824800D01*
X134410400Y-84824800D02*
X134362781Y-84729561D01*
X134362781Y-84729561D02*
X134362781Y-84681942D01*
X134362781Y-84681942D02*
X134410400Y-84586704D01*
X134410400Y-84586704D02*
X134505638Y-84539085D01*
X134505638Y-84539085D02*
X134648495Y-84539085D01*
X134648495Y-84539085D02*
X134743733Y-84491466D01*
X134743733Y-84491466D02*
X134791352Y-84396228D01*
X134791352Y-84396228D02*
X134791352Y-84348609D01*
X134791352Y-84348609D02*
X134743733Y-84253371D01*
X134743733Y-84253371D02*
X134648495Y-84205752D01*
X134648495Y-84205752D02*
X134505638Y-84205752D01*
X134505638Y-84205752D02*
X134410400Y-84253371D01*
X133934209Y-84777180D02*
X133886590Y-84824800D01*
X133886590Y-84824800D02*
X133934209Y-84872419D01*
X133934209Y-84872419D02*
X133981828Y-84824800D01*
X133981828Y-84824800D02*
X133934209Y-84777180D01*
X133934209Y-84777180D02*
X133934209Y-84872419D01*
X133934209Y-84253371D02*
X133886590Y-84300990D01*
X133886590Y-84300990D02*
X133934209Y-84348609D01*
X133934209Y-84348609D02*
X133981828Y-84300990D01*
X133981828Y-84300990D02*
X133934209Y-84253371D01*
X133934209Y-84253371D02*
X133934209Y-84348609D01*
X132743734Y-83824800D02*
X133600876Y-85110514D01*
X131696115Y-83824800D02*
X132553257Y-85110514D01*
X130934210Y-84205752D02*
X130934210Y-85015276D01*
X130934210Y-85015276D02*
X130981829Y-85110514D01*
X130981829Y-85110514D02*
X131029448Y-85158133D01*
X131029448Y-85158133D02*
X131124686Y-85205752D01*
X131124686Y-85205752D02*
X131267543Y-85205752D01*
X131267543Y-85205752D02*
X131362781Y-85158133D01*
X130934210Y-84824800D02*
X131029448Y-84872419D01*
X131029448Y-84872419D02*
X131219924Y-84872419D01*
X131219924Y-84872419D02*
X131315162Y-84824800D01*
X131315162Y-84824800D02*
X131362781Y-84777180D01*
X131362781Y-84777180D02*
X131410400Y-84681942D01*
X131410400Y-84681942D02*
X131410400Y-84396228D01*
X131410400Y-84396228D02*
X131362781Y-84300990D01*
X131362781Y-84300990D02*
X131315162Y-84253371D01*
X131315162Y-84253371D02*
X131219924Y-84205752D01*
X131219924Y-84205752D02*
X131029448Y-84205752D01*
X131029448Y-84205752D02*
X130934210Y-84253371D01*
X130458019Y-84872419D02*
X130458019Y-84205752D01*
X130458019Y-83872419D02*
X130505638Y-83920038D01*
X130505638Y-83920038D02*
X130458019Y-83967657D01*
X130458019Y-83967657D02*
X130410400Y-83920038D01*
X130410400Y-83920038D02*
X130458019Y-83872419D01*
X130458019Y-83872419D02*
X130458019Y-83967657D01*
X130124686Y-84205752D02*
X129743734Y-84205752D01*
X129981829Y-83872419D02*
X129981829Y-84729561D01*
X129981829Y-84729561D02*
X129934210Y-84824800D01*
X129934210Y-84824800D02*
X129838972Y-84872419D01*
X129838972Y-84872419D02*
X129743734Y-84872419D01*
X129410400Y-84872419D02*
X129410400Y-83872419D01*
X128981829Y-84872419D02*
X128981829Y-84348609D01*
X128981829Y-84348609D02*
X129029448Y-84253371D01*
X129029448Y-84253371D02*
X129124686Y-84205752D01*
X129124686Y-84205752D02*
X129267543Y-84205752D01*
X129267543Y-84205752D02*
X129362781Y-84253371D01*
X129362781Y-84253371D02*
X129410400Y-84300990D01*
X128077067Y-84205752D02*
X128077067Y-84872419D01*
X128505638Y-84205752D02*
X128505638Y-84729561D01*
X128505638Y-84729561D02*
X128458019Y-84824800D01*
X128458019Y-84824800D02*
X128362781Y-84872419D01*
X128362781Y-84872419D02*
X128219924Y-84872419D01*
X128219924Y-84872419D02*
X128124686Y-84824800D01*
X128124686Y-84824800D02*
X128077067Y-84777180D01*
X127600876Y-84872419D02*
X127600876Y-83872419D01*
X127600876Y-84253371D02*
X127505638Y-84205752D01*
X127505638Y-84205752D02*
X127315162Y-84205752D01*
X127315162Y-84205752D02*
X127219924Y-84253371D01*
X127219924Y-84253371D02*
X127172305Y-84300990D01*
X127172305Y-84300990D02*
X127124686Y-84396228D01*
X127124686Y-84396228D02*
X127124686Y-84681942D01*
X127124686Y-84681942D02*
X127172305Y-84777180D01*
X127172305Y-84777180D02*
X127219924Y-84824800D01*
X127219924Y-84824800D02*
X127315162Y-84872419D01*
X127315162Y-84872419D02*
X127505638Y-84872419D01*
X127505638Y-84872419D02*
X127600876Y-84824800D01*
X126696114Y-84777180D02*
X126648495Y-84824800D01*
X126648495Y-84824800D02*
X126696114Y-84872419D01*
X126696114Y-84872419D02*
X126743733Y-84824800D01*
X126743733Y-84824800D02*
X126696114Y-84777180D01*
X126696114Y-84777180D02*
X126696114Y-84872419D01*
X125791353Y-84824800D02*
X125886591Y-84872419D01*
X125886591Y-84872419D02*
X126077067Y-84872419D01*
X126077067Y-84872419D02*
X126172305Y-84824800D01*
X126172305Y-84824800D02*
X126219924Y-84777180D01*
X126219924Y-84777180D02*
X126267543Y-84681942D01*
X126267543Y-84681942D02*
X126267543Y-84396228D01*
X126267543Y-84396228D02*
X126219924Y-84300990D01*
X126219924Y-84300990D02*
X126172305Y-84253371D01*
X126172305Y-84253371D02*
X126077067Y-84205752D01*
X126077067Y-84205752D02*
X125886591Y-84205752D01*
X125886591Y-84205752D02*
X125791353Y-84253371D01*
X125219924Y-84872419D02*
X125315162Y-84824800D01*
X125315162Y-84824800D02*
X125362781Y-84777180D01*
X125362781Y-84777180D02*
X125410400Y-84681942D01*
X125410400Y-84681942D02*
X125410400Y-84396228D01*
X125410400Y-84396228D02*
X125362781Y-84300990D01*
X125362781Y-84300990D02*
X125315162Y-84253371D01*
X125315162Y-84253371D02*
X125219924Y-84205752D01*
X125219924Y-84205752D02*
X125077067Y-84205752D01*
X125077067Y-84205752D02*
X124981829Y-84253371D01*
X124981829Y-84253371D02*
X124934210Y-84300990D01*
X124934210Y-84300990D02*
X124886591Y-84396228D01*
X124886591Y-84396228D02*
X124886591Y-84681942D01*
X124886591Y-84681942D02*
X124934210Y-84777180D01*
X124934210Y-84777180D02*
X124981829Y-84824800D01*
X124981829Y-84824800D02*
X125077067Y-84872419D01*
X125077067Y-84872419D02*
X125219924Y-84872419D01*
X124458019Y-84872419D02*
X124458019Y-84205752D01*
X124458019Y-84300990D02*
X124410400Y-84253371D01*
X124410400Y-84253371D02*
X124315162Y-84205752D01*
X124315162Y-84205752D02*
X124172305Y-84205752D01*
X124172305Y-84205752D02*
X124077067Y-84253371D01*
X124077067Y-84253371D02*
X124029448Y-84348609D01*
X124029448Y-84348609D02*
X124029448Y-84872419D01*
X124029448Y-84348609D02*
X123981829Y-84253371D01*
X123981829Y-84253371D02*
X123886591Y-84205752D01*
X123886591Y-84205752D02*
X123743734Y-84205752D01*
X123743734Y-84205752D02*
X123648495Y-84253371D01*
X123648495Y-84253371D02*
X123600876Y-84348609D01*
X123600876Y-84348609D02*
X123600876Y-84872419D01*
X122410401Y-83824800D02*
X123267543Y-85110514D01*
X122077067Y-84205752D02*
X122077067Y-85205752D01*
X122077067Y-84253371D02*
X121981829Y-84205752D01*
X121981829Y-84205752D02*
X121791353Y-84205752D01*
X121791353Y-84205752D02*
X121696115Y-84253371D01*
X121696115Y-84253371D02*
X121648496Y-84300990D01*
X121648496Y-84300990D02*
X121600877Y-84396228D01*
X121600877Y-84396228D02*
X121600877Y-84681942D01*
X121600877Y-84681942D02*
X121648496Y-84777180D01*
X121648496Y-84777180D02*
X121696115Y-84824800D01*
X121696115Y-84824800D02*
X121791353Y-84872419D01*
X121791353Y-84872419D02*
X121981829Y-84872419D01*
X121981829Y-84872419D02*
X122077067Y-84824800D01*
X120791353Y-84824800D02*
X120886591Y-84872419D01*
X120886591Y-84872419D02*
X121077067Y-84872419D01*
X121077067Y-84872419D02*
X121172305Y-84824800D01*
X121172305Y-84824800D02*
X121219924Y-84729561D01*
X121219924Y-84729561D02*
X121219924Y-84348609D01*
X121219924Y-84348609D02*
X121172305Y-84253371D01*
X121172305Y-84253371D02*
X121077067Y-84205752D01*
X121077067Y-84205752D02*
X120886591Y-84205752D01*
X120886591Y-84205752D02*
X120791353Y-84253371D01*
X120791353Y-84253371D02*
X120743734Y-84348609D01*
X120743734Y-84348609D02*
X120743734Y-84443847D01*
X120743734Y-84443847D02*
X121219924Y-84539085D01*
X120172305Y-84872419D02*
X120267543Y-84824800D01*
X120267543Y-84824800D02*
X120315162Y-84729561D01*
X120315162Y-84729561D02*
X120315162Y-83872419D01*
X119648495Y-84872419D02*
X119743733Y-84824800D01*
X119743733Y-84824800D02*
X119791352Y-84729561D01*
X119791352Y-84729561D02*
X119791352Y-83872419D01*
X118886590Y-84824800D02*
X118981828Y-84872419D01*
X118981828Y-84872419D02*
X119172304Y-84872419D01*
X119172304Y-84872419D02*
X119267542Y-84824800D01*
X119267542Y-84824800D02*
X119315161Y-84729561D01*
X119315161Y-84729561D02*
X119315161Y-84348609D01*
X119315161Y-84348609D02*
X119267542Y-84253371D01*
X119267542Y-84253371D02*
X119172304Y-84205752D01*
X119172304Y-84205752D02*
X118981828Y-84205752D01*
X118981828Y-84205752D02*
X118886590Y-84253371D01*
X118886590Y-84253371D02*
X118838971Y-84348609D01*
X118838971Y-84348609D02*
X118838971Y-84443847D01*
X118838971Y-84443847D02*
X119315161Y-84539085D01*
X118410399Y-84872419D02*
X118410399Y-84205752D01*
X118410399Y-84300990D02*
X118362780Y-84253371D01*
X118362780Y-84253371D02*
X118267542Y-84205752D01*
X118267542Y-84205752D02*
X118124685Y-84205752D01*
X118124685Y-84205752D02*
X118029447Y-84253371D01*
X118029447Y-84253371D02*
X117981828Y-84348609D01*
X117981828Y-84348609D02*
X117981828Y-84872419D01*
X117981828Y-84348609D02*
X117934209Y-84253371D01*
X117934209Y-84253371D02*
X117838971Y-84205752D01*
X117838971Y-84205752D02*
X117696114Y-84205752D01*
X117696114Y-84205752D02*
X117600875Y-84253371D01*
X117600875Y-84253371D02*
X117553256Y-84348609D01*
X117553256Y-84348609D02*
X117553256Y-84872419D01*
X116648495Y-84872419D02*
X116648495Y-84348609D01*
X116648495Y-84348609D02*
X116696114Y-84253371D01*
X116696114Y-84253371D02*
X116791352Y-84205752D01*
X116791352Y-84205752D02*
X116981828Y-84205752D01*
X116981828Y-84205752D02*
X117077066Y-84253371D01*
X116648495Y-84824800D02*
X116743733Y-84872419D01*
X116743733Y-84872419D02*
X116981828Y-84872419D01*
X116981828Y-84872419D02*
X117077066Y-84824800D01*
X117077066Y-84824800D02*
X117124685Y-84729561D01*
X117124685Y-84729561D02*
X117124685Y-84634323D01*
X117124685Y-84634323D02*
X117077066Y-84539085D01*
X117077066Y-84539085D02*
X116981828Y-84491466D01*
X116981828Y-84491466D02*
X116743733Y-84491466D01*
X116743733Y-84491466D02*
X116648495Y-84443847D01*
X116315161Y-84205752D02*
X115934209Y-84205752D01*
X116172304Y-83872419D02*
X116172304Y-84729561D01*
X116172304Y-84729561D02*
X116124685Y-84824800D01*
X116124685Y-84824800D02*
X116029447Y-84872419D01*
X116029447Y-84872419D02*
X115934209Y-84872419D01*
X115600875Y-84872419D02*
X115600875Y-84205752D01*
X115600875Y-84396228D02*
X115553256Y-84300990D01*
X115553256Y-84300990D02*
X115505637Y-84253371D01*
X115505637Y-84253371D02*
X115410399Y-84205752D01*
X115410399Y-84205752D02*
X115315161Y-84205752D01*
X114838970Y-84872419D02*
X114934208Y-84824800D01*
X114934208Y-84824800D02*
X114981827Y-84777180D01*
X114981827Y-84777180D02*
X115029446Y-84681942D01*
X115029446Y-84681942D02*
X115029446Y-84396228D01*
X115029446Y-84396228D02*
X114981827Y-84300990D01*
X114981827Y-84300990D02*
X114934208Y-84253371D01*
X114934208Y-84253371D02*
X114838970Y-84205752D01*
X114838970Y-84205752D02*
X114696113Y-84205752D01*
X114696113Y-84205752D02*
X114600875Y-84253371D01*
X114600875Y-84253371D02*
X114553256Y-84300990D01*
X114553256Y-84300990D02*
X114505637Y-84396228D01*
X114505637Y-84396228D02*
X114505637Y-84681942D01*
X114505637Y-84681942D02*
X114553256Y-84777180D01*
X114553256Y-84777180D02*
X114600875Y-84824800D01*
X114600875Y-84824800D02*
X114696113Y-84872419D01*
X114696113Y-84872419D02*
X114838970Y-84872419D01*
X114124684Y-84824800D02*
X114029446Y-84872419D01*
X114029446Y-84872419D02*
X113838970Y-84872419D01*
X113838970Y-84872419D02*
X113743732Y-84824800D01*
X113743732Y-84824800D02*
X113696113Y-84729561D01*
X113696113Y-84729561D02*
X113696113Y-84681942D01*
X113696113Y-84681942D02*
X113743732Y-84586704D01*
X113743732Y-84586704D02*
X113838970Y-84539085D01*
X113838970Y-84539085D02*
X113981827Y-84539085D01*
X113981827Y-84539085D02*
X114077065Y-84491466D01*
X114077065Y-84491466D02*
X114124684Y-84396228D01*
X114124684Y-84396228D02*
X114124684Y-84348609D01*
X114124684Y-84348609D02*
X114077065Y-84253371D01*
X114077065Y-84253371D02*
X113981827Y-84205752D01*
X113981827Y-84205752D02*
X113838970Y-84205752D01*
X113838970Y-84205752D02*
X113743732Y-84253371D01*
X112886589Y-84824800D02*
X112981827Y-84872419D01*
X112981827Y-84872419D02*
X113172303Y-84872419D01*
X113172303Y-84872419D02*
X113267541Y-84824800D01*
X113267541Y-84824800D02*
X113315160Y-84729561D01*
X113315160Y-84729561D02*
X113315160Y-84348609D01*
X113315160Y-84348609D02*
X113267541Y-84253371D01*
X113267541Y-84253371D02*
X113172303Y-84205752D01*
X113172303Y-84205752D02*
X112981827Y-84205752D01*
X112981827Y-84205752D02*
X112886589Y-84253371D01*
X112886589Y-84253371D02*
X112838970Y-84348609D01*
X112838970Y-84348609D02*
X112838970Y-84443847D01*
X112838970Y-84443847D02*
X113315160Y-84539085D01*
X111696113Y-83824800D02*
X112553255Y-85110514D01*
X111410398Y-84824800D02*
X111267541Y-84872419D01*
X111267541Y-84872419D02*
X111029446Y-84872419D01*
X111029446Y-84872419D02*
X110934208Y-84824800D01*
X110934208Y-84824800D02*
X110886589Y-84777180D01*
X110886589Y-84777180D02*
X110838970Y-84681942D01*
X110838970Y-84681942D02*
X110838970Y-84586704D01*
X110838970Y-84586704D02*
X110886589Y-84491466D01*
X110886589Y-84491466D02*
X110934208Y-84443847D01*
X110934208Y-84443847D02*
X111029446Y-84396228D01*
X111029446Y-84396228D02*
X111219922Y-84348609D01*
X111219922Y-84348609D02*
X111315160Y-84300990D01*
X111315160Y-84300990D02*
X111362779Y-84253371D01*
X111362779Y-84253371D02*
X111410398Y-84158133D01*
X111410398Y-84158133D02*
X111410398Y-84062895D01*
X111410398Y-84062895D02*
X111362779Y-83967657D01*
X111362779Y-83967657D02*
X111315160Y-83920038D01*
X111315160Y-83920038D02*
X111219922Y-83872419D01*
X111219922Y-83872419D02*
X110981827Y-83872419D01*
X110981827Y-83872419D02*
X110838970Y-83920038D01*
X110410398Y-84872419D02*
X110410398Y-84205752D01*
X110410398Y-83872419D02*
X110458017Y-83920038D01*
X110458017Y-83920038D02*
X110410398Y-83967657D01*
X110410398Y-83967657D02*
X110362779Y-83920038D01*
X110362779Y-83920038D02*
X110410398Y-83872419D01*
X110410398Y-83872419D02*
X110410398Y-83967657D01*
X109505637Y-84824800D02*
X109600875Y-84872419D01*
X109600875Y-84872419D02*
X109791351Y-84872419D01*
X109791351Y-84872419D02*
X109886589Y-84824800D01*
X109886589Y-84824800D02*
X109934208Y-84777180D01*
X109934208Y-84777180D02*
X109981827Y-84681942D01*
X109981827Y-84681942D02*
X109981827Y-84396228D01*
X109981827Y-84396228D02*
X109934208Y-84300990D01*
X109934208Y-84300990D02*
X109886589Y-84253371D01*
X109886589Y-84253371D02*
X109791351Y-84205752D01*
X109791351Y-84205752D02*
X109600875Y-84205752D01*
X109600875Y-84205752D02*
X109505637Y-84253371D01*
X109077065Y-84872419D02*
X109077065Y-83872419D01*
X108648494Y-84872419D02*
X108648494Y-84348609D01*
X108648494Y-84348609D02*
X108696113Y-84253371D01*
X108696113Y-84253371D02*
X108791351Y-84205752D01*
X108791351Y-84205752D02*
X108934208Y-84205752D01*
X108934208Y-84205752D02*
X109029446Y-84253371D01*
X109029446Y-84253371D02*
X109077065Y-84300990D01*
X107791351Y-84824800D02*
X107886589Y-84872419D01*
X107886589Y-84872419D02*
X108077065Y-84872419D01*
X108077065Y-84872419D02*
X108172303Y-84824800D01*
X108172303Y-84824800D02*
X108219922Y-84729561D01*
X108219922Y-84729561D02*
X108219922Y-84348609D01*
X108219922Y-84348609D02*
X108172303Y-84253371D01*
X108172303Y-84253371D02*
X108077065Y-84205752D01*
X108077065Y-84205752D02*
X107886589Y-84205752D01*
X107886589Y-84205752D02*
X107791351Y-84253371D01*
X107791351Y-84253371D02*
X107743732Y-84348609D01*
X107743732Y-84348609D02*
X107743732Y-84443847D01*
X107743732Y-84443847D02*
X108219922Y-84539085D01*
X107315160Y-84872419D02*
X107315160Y-84205752D01*
X107315160Y-84396228D02*
X107267541Y-84300990D01*
X107267541Y-84300990D02*
X107219922Y-84253371D01*
X107219922Y-84253371D02*
X107124684Y-84205752D01*
X107124684Y-84205752D02*
X107029446Y-84205752D01*
X106267541Y-84205752D02*
X106267541Y-84872419D01*
X106696112Y-84205752D02*
X106696112Y-84729561D01*
X106696112Y-84729561D02*
X106648493Y-84824800D01*
X106648493Y-84824800D02*
X106553255Y-84872419D01*
X106553255Y-84872419D02*
X106410398Y-84872419D01*
X106410398Y-84872419D02*
X106315160Y-84824800D01*
X106315160Y-84824800D02*
X106267541Y-84777180D01*
X105791350Y-84205752D02*
X105791350Y-84872419D01*
X105791350Y-84300990D02*
X105743731Y-84253371D01*
X105743731Y-84253371D02*
X105648493Y-84205752D01*
X105648493Y-84205752D02*
X105505636Y-84205752D01*
X105505636Y-84205752D02*
X105410398Y-84253371D01*
X105410398Y-84253371D02*
X105362779Y-84348609D01*
X105362779Y-84348609D02*
X105362779Y-84872419D01*
X104458017Y-84205752D02*
X104458017Y-85015276D01*
X104458017Y-85015276D02*
X104505636Y-85110514D01*
X104505636Y-85110514D02*
X104553255Y-85158133D01*
X104553255Y-85158133D02*
X104648493Y-85205752D01*
X104648493Y-85205752D02*
X104791350Y-85205752D01*
X104791350Y-85205752D02*
X104886588Y-85158133D01*
X104458017Y-84824800D02*
X104553255Y-84872419D01*
X104553255Y-84872419D02*
X104743731Y-84872419D01*
X104743731Y-84872419D02*
X104838969Y-84824800D01*
X104838969Y-84824800D02*
X104886588Y-84777180D01*
X104886588Y-84777180D02*
X104934207Y-84681942D01*
X104934207Y-84681942D02*
X104934207Y-84396228D01*
X104934207Y-84396228D02*
X104886588Y-84300990D01*
X104886588Y-84300990D02*
X104838969Y-84253371D01*
X104838969Y-84253371D02*
X104743731Y-84205752D01*
X104743731Y-84205752D02*
X104553255Y-84205752D01*
X104553255Y-84205752D02*
X104458017Y-84253371D01*
X104029445Y-84824800D02*
X103934207Y-84872419D01*
X103934207Y-84872419D02*
X103743731Y-84872419D01*
X103743731Y-84872419D02*
X103648493Y-84824800D01*
X103648493Y-84824800D02*
X103600874Y-84729561D01*
X103600874Y-84729561D02*
X103600874Y-84681942D01*
X103600874Y-84681942D02*
X103648493Y-84586704D01*
X103648493Y-84586704D02*
X103743731Y-84539085D01*
X103743731Y-84539085D02*
X103886588Y-84539085D01*
X103886588Y-84539085D02*
X103981826Y-84491466D01*
X103981826Y-84491466D02*
X104029445Y-84396228D01*
X104029445Y-84396228D02*
X104029445Y-84348609D01*
X104029445Y-84348609D02*
X103981826Y-84253371D01*
X103981826Y-84253371D02*
X103886588Y-84205752D01*
X103886588Y-84205752D02*
X103743731Y-84205752D01*
X103743731Y-84205752D02*
X103648493Y-84253371D01*
X103172302Y-84872419D02*
X103172302Y-83872419D01*
X103077064Y-84491466D02*
X102791350Y-84872419D01*
X102791350Y-84205752D02*
X103172302Y-84586704D01*
X101934207Y-84872419D02*
X101934207Y-84348609D01*
X101934207Y-84348609D02*
X101981826Y-84253371D01*
X101981826Y-84253371D02*
X102077064Y-84205752D01*
X102077064Y-84205752D02*
X102267540Y-84205752D01*
X102267540Y-84205752D02*
X102362778Y-84253371D01*
X101934207Y-84824800D02*
X102029445Y-84872419D01*
X102029445Y-84872419D02*
X102267540Y-84872419D01*
X102267540Y-84872419D02*
X102362778Y-84824800D01*
X102362778Y-84824800D02*
X102410397Y-84729561D01*
X102410397Y-84729561D02*
X102410397Y-84634323D01*
X102410397Y-84634323D02*
X102362778Y-84539085D01*
X102362778Y-84539085D02*
X102267540Y-84491466D01*
X102267540Y-84491466D02*
X102029445Y-84491466D01*
X102029445Y-84491466D02*
X101934207Y-84443847D01*
X101458016Y-84872419D02*
X101458016Y-84205752D01*
X101458016Y-84396228D02*
X101410397Y-84300990D01*
X101410397Y-84300990D02*
X101362778Y-84253371D01*
X101362778Y-84253371D02*
X101267540Y-84205752D01*
X101267540Y-84205752D02*
X101172302Y-84205752D01*
X100981825Y-84205752D02*
X100600873Y-84205752D01*
X100838968Y-83872419D02*
X100838968Y-84729561D01*
X100838968Y-84729561D02*
X100791349Y-84824800D01*
X100791349Y-84824800D02*
X100696111Y-84872419D01*
X100696111Y-84872419D02*
X100600873Y-84872419D01*
X99886587Y-84824800D02*
X99981825Y-84872419D01*
X99981825Y-84872419D02*
X100172301Y-84872419D01*
X100172301Y-84872419D02*
X100267539Y-84824800D01*
X100267539Y-84824800D02*
X100315158Y-84729561D01*
X100315158Y-84729561D02*
X100315158Y-84348609D01*
X100315158Y-84348609D02*
X100267539Y-84253371D01*
X100267539Y-84253371D02*
X100172301Y-84205752D01*
X100172301Y-84205752D02*
X99981825Y-84205752D01*
X99981825Y-84205752D02*
X99886587Y-84253371D01*
X99886587Y-84253371D02*
X99838968Y-84348609D01*
X99838968Y-84348609D02*
X99838968Y-84443847D01*
X99838968Y-84443847D02*
X100315158Y-84539085D01*
M02*
