%TF.GenerationSoftware,KiCad,Pcbnew,10.0.0-10.0.0~ubuntu24.04.1*%
%TF.CreationDate,2026-04-01T14:08:49+02:00*%
%TF.ProjectId,Sicherungskarte,53696368-6572-4756-9e67-736b61727465,V1.0*%
%TF.SameCoordinates,Original*%
%TF.FileFunction,Copper,L2,Bot*%
%TF.FilePolarity,Positive*%
%FSLAX46Y46*%
G04 Gerber Fmt 4.6, Leading zero omitted, Abs format (unit mm)*
G04 Created by KiCad (PCBNEW 10.0.0-10.0.0~ubuntu24.04.1) date 2026-04-01 14:08:49*
%MOMM*%
%LPD*%
G01*
G04 APERTURE LIST*
%TA.AperFunction,ComponentPad*%
%ADD10C,2.400000*%
%TD*%
%TA.AperFunction,ComponentPad*%
%ADD11R,3.000000X3.000000*%
%TD*%
%TA.AperFunction,ComponentPad*%
%ADD12C,3.000000*%
%TD*%
%TA.AperFunction,Conductor*%
%ADD13C,3.000000*%
%TD*%
G04 APERTURE END LIST*
D10*
%TO.P,F2,1*%
%TO.N,Net-(J1-Pin_2)*%
X105300000Y-94735000D03*
X108700000Y-94735000D03*
%TO.P,F2,2*%
%TO.N,Net-(J2-Pin_2)*%
X105300000Y-81265000D03*
X108700000Y-81265000D03*
%TD*%
D11*
%TO.P,J4,1,Pin_1*%
%TO.N,Net-(J4-Pin_1)*%
X136080000Y-68000000D03*
D12*
%TO.P,J4,2,Pin_2*%
%TO.N,Net-(J4-Pin_2)*%
X131000000Y-68000000D03*
%TO.P,J4,3,Pin_3*%
%TO.N,Net-(J4-Pin_3)*%
X125920000Y-68000000D03*
%TD*%
D11*
%TO.P,J2,1,Pin_1*%
%TO.N,Net-(J2-Pin_1)*%
X112080000Y-68000000D03*
D12*
%TO.P,J2,2,Pin_2*%
%TO.N,Net-(J2-Pin_2)*%
X107000000Y-68000000D03*
%TO.P,J2,3,Pin_3*%
%TO.N,Net-(J2-Pin_3)*%
X101920000Y-68000000D03*
%TD*%
D11*
%TO.P,J3,1,Pin_1*%
%TO.N,Net-(J3-Pin_1)*%
X125920000Y-108000000D03*
D12*
%TO.P,J3,2,Pin_2*%
%TO.N,Net-(J3-Pin_2)*%
X131000000Y-108000000D03*
%TO.P,J3,3,Pin_3*%
%TO.N,Net-(J3-Pin_3)*%
X136080000Y-108000000D03*
%TD*%
D10*
%TO.P,F6,1*%
%TO.N,Net-(J3-Pin_3)*%
X137300000Y-94735000D03*
X140700000Y-94735000D03*
%TO.P,F6,2*%
%TO.N,Net-(J4-Pin_1)*%
X137300000Y-81265000D03*
X140700000Y-81265000D03*
%TD*%
%TO.P,F5,1*%
%TO.N,Net-(J3-Pin_2)*%
X129300000Y-94735000D03*
X132700000Y-94735000D03*
%TO.P,F5,2*%
%TO.N,Net-(J4-Pin_2)*%
X129300000Y-81265000D03*
X132700000Y-81265000D03*
%TD*%
%TO.P,F4,1*%
%TO.N,Net-(J3-Pin_1)*%
X121300000Y-94735000D03*
X124700000Y-94735000D03*
%TO.P,F4,2*%
%TO.N,Net-(J4-Pin_3)*%
X121300000Y-81265000D03*
X124700000Y-81265000D03*
%TD*%
%TO.P,F3,1*%
%TO.N,Net-(J1-Pin_3)*%
X113300000Y-94735000D03*
X116700000Y-94735000D03*
%TO.P,F3,2*%
%TO.N,Net-(J2-Pin_1)*%
X113300000Y-81265000D03*
X116700000Y-81265000D03*
%TD*%
D11*
%TO.P,J1,1,Pin_1*%
%TO.N,Net-(J1-Pin_1)*%
X101920000Y-108000000D03*
D12*
%TO.P,J1,2,Pin_2*%
%TO.N,Net-(J1-Pin_2)*%
X107000000Y-108000000D03*
%TO.P,J1,3,Pin_3*%
%TO.N,Net-(J1-Pin_3)*%
X112080000Y-108000000D03*
%TD*%
D10*
%TO.P,F1,1*%
%TO.N,Net-(J1-Pin_1)*%
X97300000Y-94735000D03*
X100700000Y-94735000D03*
%TO.P,F1,2*%
%TO.N,Net-(J2-Pin_3)*%
X97300000Y-81265000D03*
X100700000Y-81265000D03*
%TD*%
%TO.N,Net-(J1-Pin_2)*%
D13*
X107000000Y-94655000D02*
X108700000Y-94655000D01*
X105300000Y-94655000D02*
X107000000Y-94655000D01*
X107000000Y-107920000D02*
X107000000Y-94655000D01*
%TO.N,Net-(J2-Pin_2)*%
X107000000Y-67920000D02*
X107000000Y-81185000D01*
X107000000Y-81185000D02*
X108700000Y-81185000D01*
X105300000Y-81185000D02*
X107000000Y-81185000D01*
%TO.N,Net-(J4-Pin_1)*%
X139000000Y-81185000D02*
X140700000Y-81185000D01*
X137300000Y-81185000D02*
X139000000Y-81185000D01*
X139000000Y-71420000D02*
X139000000Y-81185000D01*
X136080000Y-68500000D02*
X139000000Y-71420000D01*
X136080000Y-67920000D02*
X136080000Y-68500000D01*
%TO.N,Net-(J4-Pin_2)*%
X129300000Y-81185000D02*
X131000000Y-81185000D01*
X131000000Y-81185000D02*
X132700000Y-81185000D01*
X131000000Y-67920000D02*
X131000000Y-81185000D01*
%TO.N,Net-(J4-Pin_3)*%
X121300000Y-81185000D02*
X123000000Y-81185000D01*
X125920000Y-67920000D02*
X123000000Y-70840000D01*
X123000000Y-81185000D02*
X124700000Y-81185000D01*
X123000000Y-70840000D02*
X123000000Y-81185000D01*
%TO.N,Net-(J2-Pin_1)*%
X113300000Y-81185000D02*
X115000000Y-81185000D01*
X115000000Y-70420000D02*
X115000000Y-81185000D01*
X112500000Y-67920000D02*
X115000000Y-70420000D01*
X115000000Y-81185000D02*
X116700000Y-81185000D01*
X112080000Y-67920000D02*
X112500000Y-67920000D01*
%TO.N,Net-(J2-Pin_3)*%
X99000000Y-81185000D02*
X97300000Y-81185000D01*
X100700000Y-81185000D02*
X99000000Y-81185000D01*
X99000000Y-70840000D02*
X101920000Y-67920000D01*
X99000000Y-81185000D02*
X99000000Y-70840000D01*
%TO.N,Net-(J3-Pin_1)*%
X125920000Y-107920000D02*
X125920000Y-107840000D01*
X123000000Y-94655000D02*
X124700000Y-94655000D01*
X123000000Y-104920000D02*
X123000000Y-94655000D01*
X121300000Y-94655000D02*
X123000000Y-94655000D01*
X125920000Y-107840000D02*
X123000000Y-104920000D01*
%TO.N,Net-(J3-Pin_2)*%
X131000000Y-107920000D02*
X131000000Y-94655000D01*
X131000000Y-94655000D02*
X132700000Y-94655000D01*
X129300000Y-94655000D02*
X131000000Y-94655000D01*
%TO.N,Net-(J3-Pin_3)*%
X137300000Y-94655000D02*
X139000000Y-94655000D01*
X138000000Y-106000000D02*
X138000000Y-95655000D01*
X136080000Y-107920000D02*
X138000000Y-106000000D01*
X139000000Y-94655000D02*
X140700000Y-94655000D01*
X138000000Y-95655000D02*
X139000000Y-94655000D01*
%TO.N,Net-(J1-Pin_3)*%
X112080000Y-107920000D02*
X114500000Y-105500000D01*
X114500000Y-105500000D02*
X114500000Y-95155000D01*
X113300000Y-94655000D02*
X115000000Y-94655000D01*
X115000000Y-94655000D02*
X116700000Y-94655000D01*
X114500000Y-95155000D02*
X115000000Y-94655000D01*
%TO.N,Net-(J1-Pin_1)*%
X99000000Y-94655000D02*
X100700000Y-94655000D01*
X101920000Y-107920000D02*
X99000000Y-105000000D01*
X99000000Y-105000000D02*
X99000000Y-94655000D01*
X97300000Y-94655000D02*
X99000000Y-94655000D01*
%TD*%
M02*
