M48
; DRILL file KiCad 10.0.0-10.0.0~ubuntu24.04.1 date 2026-03-27T20:48:13
; FORMAT={-:-/ absolute / metric / decimal}
; #@! TF.CreationDate,2026-03-27T20:48:13+01:00
; #@! TF.GenerationSoftware,Kicad,Pcbnew,10.0.0-10.0.0~ubuntu24.04.1
; #@! TF.FileFunction,MixedPlating,1,2
FMAT,2
METRIC
; #@! TA.AperFunction,Plated,PTH,ComponentDrill
T1C1.300
; #@! TA.AperFunction,Plated,PTH,ComponentDrill
T2C1.600
%
G90
G05
T1
X101.92Y-68.0
X101.92Y-108.0
X107.0Y-68.0
X107.0Y-108.0
X112.08Y-68.0
X112.08Y-108.0
X125.92Y-68.0
X125.92Y-108.0
X131.0Y-68.0
X131.0Y-108.0
X136.08Y-68.0
X136.08Y-108.0
T2
X97.3Y-81.265
X97.3Y-94.735
X100.7Y-81.265
X100.7Y-94.735
X105.3Y-81.265
X105.3Y-94.735
X108.7Y-81.265
X108.7Y-94.735
X113.3Y-81.265
X113.3Y-94.735
X116.7Y-81.265
X116.7Y-94.735
X121.3Y-81.265
X121.3Y-94.735
X124.7Y-81.265
X124.7Y-94.735
X129.3Y-81.265
X129.3Y-94.735
X132.7Y-81.265
X132.7Y-94.735
X137.3Y-81.265
X137.3Y-94.735
X140.7Y-81.265
X140.7Y-94.735
M30
