%TF.GenerationSoftware,KiCad,Pcbnew,10.0.0-10.0.0~ubuntu24.04.1*%
%TF.CreationDate,2026-03-27T20:48:13+01:00*%
%TF.ProjectId,Sicherungskarte,53696368-6572-4756-9e67-736b61727465,V1.0*%
%TF.SameCoordinates,Original*%
%TF.FileFunction,Legend,Bot*%
%TF.FilePolarity,Positive*%
%FSLAX46Y46*%
G04 Gerber Fmt 4.6, Leading zero omitted, Abs format (unit mm)*
G04 Created by KiCad (PCBNEW 10.0.0-10.0.0~ubuntu24.04.1) date 2026-03-27 20:48:13*
%MOMM*%
%LPD*%
G01*
G04 APERTURE LIST*
%ADD10C,0.000000*%
%ADD11C,0.100000*%
G04 APERTURE END LIST*
D10*
G36*
X115724138Y-93000000D02*
G01*
X115379310Y-93000000D01*
X115379310Y-92655172D01*
X115724138Y-92655172D01*
X115724138Y-93000000D01*
G37*
G36*
X114344828Y-91275862D02*
G01*
X114689655Y-91275862D01*
X114689655Y-91965517D01*
X115034483Y-91965517D01*
X115034483Y-92310345D01*
X115379310Y-92310345D01*
X115379310Y-91965517D01*
X116068966Y-91965517D01*
X116068966Y-92310345D01*
X116413793Y-92310345D01*
X116413793Y-92655172D01*
X116413793Y-93000000D01*
X116068966Y-93000000D01*
X116068966Y-92655172D01*
X115724138Y-92655172D01*
X115724138Y-92310345D01*
X115379310Y-92310345D01*
X115379310Y-92655172D01*
X114689655Y-92655172D01*
X114689655Y-92310345D01*
X114344828Y-92310345D01*
X114344828Y-92655172D01*
X114000000Y-92655172D01*
X114000000Y-92310345D01*
X114000000Y-91965517D01*
X114000000Y-91275862D01*
X114000000Y-90931034D01*
X114344828Y-90931034D01*
X114344828Y-91275862D01*
G37*
G36*
X117448276Y-93000000D02*
G01*
X116758621Y-93000000D01*
X116758621Y-92655172D01*
X117448276Y-92655172D01*
X117448276Y-93000000D01*
G37*
G36*
X120206897Y-92655172D02*
G01*
X119862069Y-92655172D01*
X119862069Y-93000000D01*
X119172414Y-93000000D01*
X119172414Y-92655172D01*
X119517241Y-92655172D01*
X119517241Y-92310345D01*
X120206897Y-92310345D01*
X120206897Y-92655172D01*
G37*
G36*
X121241379Y-92655172D02*
G01*
X121241379Y-93000000D01*
X120896552Y-93000000D01*
X120896552Y-92655172D01*
X120551724Y-92655172D01*
X120551724Y-92310345D01*
X121241379Y-92310345D01*
X121241379Y-92655172D01*
G37*
G36*
X123310345Y-92310345D02*
G01*
X122275862Y-92310345D01*
X122275862Y-91275862D01*
X123310345Y-91275862D01*
X123310345Y-92310345D01*
G37*
G36*
X124000000Y-92655172D02*
G01*
X124000000Y-93000000D01*
X121586207Y-93000000D01*
X121586207Y-92655172D01*
X121586207Y-90931034D01*
X121931034Y-90931034D01*
X121931034Y-92655172D01*
X123655172Y-92655172D01*
X123655172Y-90931034D01*
X121931034Y-90931034D01*
X121586207Y-90931034D01*
X121586207Y-90586207D01*
X124000000Y-90586207D01*
X124000000Y-90931034D01*
X124000000Y-92655172D01*
G37*
G36*
X118137931Y-92310345D02*
G01*
X117793103Y-92310345D01*
X117793103Y-92655172D01*
X117448276Y-92655172D01*
X117448276Y-92310345D01*
X117448276Y-91965517D01*
X118137931Y-91965517D01*
X118137931Y-92310345D01*
G37*
G36*
X116413793Y-90931034D02*
G01*
X116068966Y-90931034D01*
X116068966Y-90586207D01*
X116413793Y-90586207D01*
X116413793Y-90931034D01*
G37*
G36*
X117103448Y-90586207D02*
G01*
X117448276Y-90586207D01*
X117448276Y-90931034D01*
X117793103Y-90931034D01*
X117793103Y-90586207D01*
X118482759Y-90586207D01*
X118482759Y-90241379D01*
X117793103Y-90241379D01*
X117793103Y-89896552D01*
X118137931Y-89896552D01*
X118137931Y-89551724D01*
X118482759Y-89551724D01*
X118482759Y-89896552D01*
X118827586Y-89896552D01*
X118827586Y-89551724D01*
X119517241Y-89551724D01*
X119517241Y-89206897D01*
X120551724Y-89206897D01*
X120551724Y-89551724D01*
X120551724Y-89896552D01*
X120896552Y-89896552D01*
X120896552Y-90241379D01*
X120551724Y-90241379D01*
X120551724Y-90586207D01*
X120206897Y-90586207D01*
X120206897Y-90931034D01*
X120206897Y-91620690D01*
X120896552Y-91620690D01*
X120896552Y-91275862D01*
X121241379Y-91275862D01*
X121241379Y-91620690D01*
X121241379Y-91965517D01*
X120551724Y-91965517D01*
X120551724Y-92310345D01*
X120206897Y-92310345D01*
X120206897Y-91965517D01*
X119862069Y-91965517D01*
X119862069Y-91620690D01*
X119517241Y-91620690D01*
X119517241Y-90931034D01*
X119862069Y-90931034D01*
X119862069Y-90586207D01*
X119862069Y-90241379D01*
X120206897Y-90241379D01*
X120206897Y-89896552D01*
X119172414Y-89896552D01*
X119172414Y-90241379D01*
X119172414Y-90586207D01*
X118827586Y-90586207D01*
X118827586Y-90931034D01*
X119172414Y-90931034D01*
X119172414Y-91275862D01*
X118827586Y-91275862D01*
X118827586Y-91620690D01*
X118827586Y-91965517D01*
X118827586Y-92655172D01*
X118482759Y-92655172D01*
X118482759Y-91965517D01*
X118137931Y-91965517D01*
X118137931Y-91620690D01*
X118482759Y-91620690D01*
X118482759Y-91275862D01*
X117448276Y-91275862D01*
X117448276Y-91620690D01*
X116758621Y-91620690D01*
X116758621Y-91965517D01*
X117103448Y-91965517D01*
X117103448Y-92310345D01*
X116413793Y-92310345D01*
X116413793Y-91965517D01*
X116413793Y-91620690D01*
X115034483Y-91620690D01*
X115034483Y-91275862D01*
X115379310Y-91275862D01*
X115379310Y-90931034D01*
X115034483Y-90931034D01*
X115034483Y-90241379D01*
X115724138Y-90241379D01*
X115724138Y-90931034D01*
X115724138Y-91275862D01*
X116758621Y-91275862D01*
X116758621Y-90931034D01*
X116758621Y-90586207D01*
X116758621Y-90241379D01*
X115724138Y-90241379D01*
X115034483Y-90241379D01*
X114344828Y-90241379D01*
X114344828Y-89896552D01*
X114689655Y-89896552D01*
X114689655Y-89551724D01*
X115034483Y-89551724D01*
X115034483Y-89206897D01*
X115379310Y-89206897D01*
X115379310Y-88862069D01*
X115724138Y-88862069D01*
X115724138Y-89206897D01*
X115724138Y-89551724D01*
X115379310Y-89551724D01*
X115379310Y-89896552D01*
X116068966Y-89896552D01*
X116068966Y-89551724D01*
X116413793Y-89551724D01*
X116413793Y-89896552D01*
X117103448Y-89896552D01*
X117103448Y-90241379D01*
X117103448Y-90586207D01*
G37*
G36*
X119517241Y-91965517D02*
G01*
X119172414Y-91965517D01*
X119172414Y-91620690D01*
X119517241Y-91620690D01*
X119517241Y-91965517D01*
G37*
G36*
X120896552Y-91275862D02*
G01*
X120551724Y-91275862D01*
X120551724Y-90931034D01*
X120896552Y-90931034D01*
X120896552Y-91275862D01*
G37*
G36*
X119517241Y-90931034D02*
G01*
X119172414Y-90931034D01*
X119172414Y-90586207D01*
X119517241Y-90586207D01*
X119517241Y-90931034D01*
G37*
G36*
X121241379Y-90586207D02*
G01*
X120896552Y-90586207D01*
X120896552Y-90241379D01*
X121241379Y-90241379D01*
X121241379Y-90586207D01*
G37*
G36*
X122620690Y-89551724D02*
G01*
X122620690Y-89896552D01*
X122275862Y-89896552D01*
X122275862Y-90241379D01*
X121586207Y-90241379D01*
X121586207Y-89896552D01*
X121931034Y-89896552D01*
X121931034Y-89551724D01*
X122275862Y-89551724D01*
X122275862Y-88862069D01*
X122620690Y-88862069D01*
X122620690Y-89551724D01*
G37*
G36*
X122965517Y-90241379D02*
G01*
X122620690Y-90241379D01*
X122620690Y-89896552D01*
X122965517Y-89896552D01*
X122965517Y-90241379D01*
G37*
G36*
X122620690Y-88172414D02*
G01*
X122965517Y-88172414D01*
X122965517Y-87827586D01*
X124000000Y-87827586D01*
X124000000Y-88172414D01*
X123310345Y-88172414D01*
X123310345Y-88517241D01*
X124000000Y-88517241D01*
X124000000Y-88862069D01*
X124000000Y-89206897D01*
X124000000Y-89551724D01*
X124000000Y-89896552D01*
X124000000Y-90241379D01*
X123310345Y-90241379D01*
X123310345Y-89896552D01*
X122965517Y-89896552D01*
X122965517Y-89551724D01*
X123310345Y-89551724D01*
X123310345Y-89206897D01*
X122965517Y-89206897D01*
X122965517Y-88862069D01*
X122620690Y-88862069D01*
X122620690Y-88517241D01*
X122275862Y-88517241D01*
X122275862Y-88862069D01*
X120896552Y-88862069D01*
X120896552Y-88517241D01*
X120896552Y-88172414D01*
X121586207Y-88172414D01*
X121586207Y-88517241D01*
X122275862Y-88517241D01*
X122275862Y-88172414D01*
X122275862Y-87827586D01*
X122620690Y-87827586D01*
X122620690Y-88172414D01*
G37*
G36*
X117103448Y-87827586D02*
G01*
X117448276Y-87827586D01*
X117448276Y-88172414D01*
X117448276Y-88517241D01*
X117448276Y-88862069D01*
X118827586Y-88862069D01*
X118827586Y-89206897D01*
X118827586Y-89551724D01*
X118482759Y-89551724D01*
X118482759Y-89206897D01*
X118137931Y-89206897D01*
X118137931Y-89551724D01*
X117448276Y-89551724D01*
X117448276Y-89896552D01*
X117103448Y-89896552D01*
X117103448Y-89551724D01*
X117103448Y-89206897D01*
X117103448Y-88862069D01*
X116413793Y-88862069D01*
X116413793Y-88517241D01*
X117103448Y-88517241D01*
X117103448Y-88172414D01*
X116068966Y-88172414D01*
X116068966Y-88517241D01*
X115379310Y-88517241D01*
X115379310Y-88172414D01*
X115724138Y-88172414D01*
X116068966Y-88172414D01*
X116068966Y-87827586D01*
X115724138Y-87827586D01*
X115724138Y-88172414D01*
X115379310Y-88172414D01*
X115379310Y-87827586D01*
X115034483Y-87827586D01*
X115034483Y-88517241D01*
X114689655Y-88517241D01*
X114689655Y-87827586D01*
X114344828Y-87827586D01*
X114344828Y-88517241D01*
X114000000Y-88517241D01*
X114000000Y-87827586D01*
X114000000Y-87482759D01*
X114000000Y-86793103D01*
X114344828Y-86793103D01*
X114344828Y-87482759D01*
X115724138Y-87482759D01*
X115724138Y-87137931D01*
X116413793Y-87137931D01*
X116413793Y-87482759D01*
X116413793Y-87827586D01*
X116758621Y-87827586D01*
X116758621Y-87137931D01*
X116413793Y-87137931D01*
X115724138Y-87137931D01*
X115034483Y-87137931D01*
X115034483Y-86793103D01*
X115724138Y-86793103D01*
X115724138Y-86448276D01*
X115379310Y-86448276D01*
X115379310Y-86103448D01*
X116068966Y-86103448D01*
X116068966Y-86448276D01*
X116068966Y-86793103D01*
X117448276Y-86793103D01*
X117448276Y-87137931D01*
X117103448Y-87137931D01*
X117103448Y-87827586D01*
G37*
G36*
X121241379Y-89896552D02*
G01*
X120896552Y-89896552D01*
X120896552Y-89551724D01*
X121241379Y-89551724D01*
X121241379Y-89896552D01*
G37*
G36*
X114344828Y-89551724D02*
G01*
X114000000Y-89551724D01*
X114000000Y-89206897D01*
X114344828Y-89206897D01*
X114344828Y-89551724D01*
G37*
G36*
X121931034Y-89551724D02*
G01*
X121241379Y-89551724D01*
X121241379Y-89206897D01*
X121931034Y-89206897D01*
X121931034Y-89551724D01*
G37*
G36*
X115034483Y-89206897D02*
G01*
X114344828Y-89206897D01*
X114344828Y-88862069D01*
X115034483Y-88862069D01*
X115034483Y-89206897D01*
G37*
G36*
X119517241Y-89206897D02*
G01*
X119172414Y-89206897D01*
X119172414Y-88517241D01*
X119517241Y-88517241D01*
X119517241Y-89206897D01*
G37*
G36*
X120896552Y-89206897D02*
G01*
X120551724Y-89206897D01*
X120551724Y-88862069D01*
X120896552Y-88862069D01*
X120896552Y-89206897D01*
G37*
G36*
X115379310Y-88862069D02*
G01*
X115034483Y-88862069D01*
X115034483Y-88517241D01*
X115379310Y-88517241D01*
X115379310Y-88862069D01*
G37*
G36*
X120206897Y-88862069D02*
G01*
X119862069Y-88862069D01*
X119862069Y-88517241D01*
X120206897Y-88517241D01*
X120206897Y-88862069D01*
G37*
G36*
X119517241Y-87827586D02*
G01*
X119862069Y-87827586D01*
X119862069Y-88172414D01*
X118827586Y-88172414D01*
X118827586Y-88517241D01*
X118482759Y-88517241D01*
X118482759Y-88172414D01*
X118482759Y-87827586D01*
X119172414Y-87827586D01*
X119172414Y-87482759D01*
X119517241Y-87482759D01*
X119517241Y-87827586D01*
G37*
G36*
X120551724Y-88517241D02*
G01*
X120206897Y-88517241D01*
X120206897Y-87827586D01*
X120551724Y-87827586D01*
X120551724Y-88517241D01*
G37*
G36*
X121931034Y-88172414D02*
G01*
X121586207Y-88172414D01*
X121586207Y-87827586D01*
X121931034Y-87827586D01*
X121931034Y-88172414D01*
G37*
G36*
X118482759Y-87827586D02*
G01*
X117448276Y-87827586D01*
X117448276Y-87482759D01*
X118482759Y-87482759D01*
X118482759Y-87827586D01*
G37*
G36*
X120551724Y-86793103D02*
G01*
X120896552Y-86793103D01*
X120896552Y-87137931D01*
X120896552Y-87482759D01*
X120551724Y-87482759D01*
X120551724Y-87137931D01*
X120206897Y-87137931D01*
X120206897Y-87482759D01*
X120206897Y-87827586D01*
X119862069Y-87827586D01*
X119862069Y-87482759D01*
X119517241Y-87482759D01*
X119517241Y-87137931D01*
X119862069Y-87137931D01*
X119862069Y-86793103D01*
X119862069Y-86448276D01*
X120551724Y-86448276D01*
X120551724Y-86793103D01*
G37*
G36*
X121931034Y-87482759D02*
G01*
X121586207Y-87482759D01*
X121586207Y-87827586D01*
X120896552Y-87827586D01*
X120896552Y-87482759D01*
X121241379Y-87482759D01*
X121241379Y-87137931D01*
X121931034Y-87137931D01*
X121931034Y-87482759D01*
G37*
G36*
X122275862Y-87827586D02*
G01*
X121931034Y-87827586D01*
X121931034Y-87482759D01*
X122275862Y-87482759D01*
X122275862Y-87827586D01*
G37*
G36*
X118827586Y-86448276D02*
G01*
X119517241Y-86448276D01*
X119517241Y-86793103D01*
X118827586Y-86793103D01*
X118827586Y-87137931D01*
X118827586Y-87482759D01*
X118482759Y-87482759D01*
X118482759Y-87137931D01*
X117793103Y-87137931D01*
X117793103Y-86793103D01*
X117793103Y-86448276D01*
X118482759Y-86448276D01*
X118482759Y-86103448D01*
X118827586Y-86103448D01*
X118827586Y-86448276D01*
G37*
G36*
X122965517Y-87137931D02*
G01*
X123310345Y-87137931D01*
X123310345Y-87482759D01*
X122620690Y-87482759D01*
X122620690Y-87137931D01*
X122620690Y-86793103D01*
X122965517Y-86793103D01*
X122965517Y-87137931D01*
G37*
G36*
X122275862Y-87137931D02*
G01*
X121931034Y-87137931D01*
X121931034Y-86793103D01*
X122275862Y-86793103D01*
X122275862Y-87137931D01*
G37*
G36*
X123655172Y-86793103D02*
G01*
X123655172Y-87137931D01*
X123310345Y-87137931D01*
X123310345Y-86793103D01*
X122965517Y-86793103D01*
X122965517Y-86448276D01*
X123655172Y-86448276D01*
X123655172Y-86793103D01*
G37*
G36*
X115034483Y-86448276D02*
G01*
X115034483Y-86793103D01*
X114689655Y-86793103D01*
X114689655Y-86448276D01*
X114344828Y-86448276D01*
X114344828Y-86103448D01*
X115034483Y-86103448D01*
X115034483Y-86448276D01*
G37*
G36*
X120551724Y-85413793D02*
G01*
X120551724Y-85758621D01*
X120896552Y-85758621D01*
X120896552Y-86103448D01*
X121586207Y-86103448D01*
X121586207Y-86448276D01*
X121241379Y-86448276D01*
X121241379Y-86793103D01*
X120896552Y-86793103D01*
X120896552Y-86448276D01*
X120551724Y-86448276D01*
X120551724Y-86103448D01*
X119862069Y-86103448D01*
X119862069Y-86448276D01*
X119517241Y-86448276D01*
X119517241Y-86103448D01*
X119517241Y-85758621D01*
X119862069Y-85758621D01*
X119862069Y-85413793D01*
X120206897Y-85413793D01*
X120206897Y-84724138D01*
X120551724Y-84724138D01*
X120551724Y-85413793D01*
G37*
G36*
X121931034Y-86793103D02*
G01*
X121586207Y-86793103D01*
X121586207Y-86448276D01*
X121931034Y-86448276D01*
X121931034Y-86793103D01*
G37*
G36*
X116758621Y-86448276D02*
G01*
X116413793Y-86448276D01*
X116413793Y-86103448D01*
X116758621Y-86103448D01*
X116758621Y-86448276D01*
G37*
G36*
X117103448Y-85413793D02*
G01*
X117448276Y-85413793D01*
X117448276Y-85068966D01*
X117793103Y-85068966D01*
X117793103Y-85413793D01*
X117793103Y-85758621D01*
X117448276Y-85758621D01*
X117448276Y-86103448D01*
X117793103Y-86103448D01*
X117793103Y-86448276D01*
X117103448Y-86448276D01*
X117103448Y-86103448D01*
X116758621Y-86103448D01*
X116758621Y-85758621D01*
X116758621Y-85413793D01*
X116758621Y-85068966D01*
X117103448Y-85068966D01*
X117103448Y-85413793D01*
G37*
G36*
X122275862Y-86448276D02*
G01*
X121931034Y-86448276D01*
X121931034Y-86103448D01*
X122275862Y-86103448D01*
X122275862Y-86448276D01*
G37*
G36*
X122965517Y-86103448D02*
G01*
X122965517Y-86448276D01*
X122620690Y-86448276D01*
X122620690Y-86103448D01*
X122275862Y-86103448D01*
X122275862Y-85758621D01*
X122965517Y-85758621D01*
X122965517Y-86103448D01*
G37*
G36*
X124000000Y-86103448D02*
G01*
X124000000Y-86448276D01*
X123655172Y-86448276D01*
X123655172Y-86103448D01*
X123310345Y-86103448D01*
X123310345Y-85758621D01*
X124000000Y-85758621D01*
X124000000Y-86103448D01*
G37*
G36*
X114344828Y-86103448D02*
G01*
X114000000Y-86103448D01*
X114000000Y-85758621D01*
X114344828Y-85758621D01*
X114344828Y-86103448D01*
G37*
G36*
X116413793Y-86103448D02*
G01*
X116068966Y-86103448D01*
X116068966Y-85758621D01*
X116413793Y-85758621D01*
X116413793Y-86103448D01*
G37*
G36*
X118482759Y-86103448D02*
G01*
X117793103Y-86103448D01*
X117793103Y-85758621D01*
X118482759Y-85758621D01*
X118482759Y-86103448D01*
G37*
G36*
X119172414Y-86103448D02*
G01*
X118827586Y-86103448D01*
X118827586Y-85758621D01*
X119172414Y-85758621D01*
X119172414Y-86103448D01*
G37*
G36*
X121931034Y-86103448D02*
G01*
X121586207Y-86103448D01*
X121586207Y-85758621D01*
X121931034Y-85758621D01*
X121931034Y-86103448D01*
G37*
G36*
X119517241Y-85758621D02*
G01*
X119172414Y-85758621D01*
X119172414Y-85413793D01*
X119517241Y-85413793D01*
X119517241Y-85758621D01*
G37*
G36*
X121241379Y-85758621D02*
G01*
X120896552Y-85758621D01*
X120896552Y-85068966D01*
X121241379Y-85068966D01*
X121241379Y-85758621D01*
G37*
G36*
X115724138Y-84724138D02*
G01*
X114689655Y-84724138D01*
X114689655Y-83689655D01*
X115724138Y-83689655D01*
X115724138Y-84724138D01*
G37*
G36*
X116413793Y-85068966D02*
G01*
X116413793Y-85413793D01*
X114000000Y-85413793D01*
X114000000Y-85068966D01*
X114000000Y-83344828D01*
X114344828Y-83344828D01*
X114344828Y-85068966D01*
X116068966Y-85068966D01*
X116068966Y-83344828D01*
X114344828Y-83344828D01*
X114000000Y-83344828D01*
X114000000Y-83000000D01*
X116413793Y-83000000D01*
X116413793Y-83344828D01*
X116413793Y-85068966D01*
G37*
G36*
X118482759Y-85413793D02*
G01*
X118137931Y-85413793D01*
X118137931Y-85068966D01*
X118482759Y-85068966D01*
X118482759Y-85413793D01*
G37*
G36*
X119172414Y-85413793D02*
G01*
X118827586Y-85413793D01*
X118827586Y-84379310D01*
X119172414Y-84379310D01*
X119172414Y-85413793D01*
G37*
G36*
X119862069Y-85413793D02*
G01*
X119517241Y-85413793D01*
X119517241Y-84724138D01*
X119862069Y-84724138D01*
X119862069Y-85413793D01*
G37*
G36*
X123310345Y-84724138D02*
G01*
X122275862Y-84724138D01*
X122275862Y-83689655D01*
X123310345Y-83689655D01*
X123310345Y-84724138D01*
G37*
G36*
X124000000Y-85068966D02*
G01*
X124000000Y-85413793D01*
X121586207Y-85413793D01*
X121586207Y-85068966D01*
X121586207Y-83344828D01*
X121931034Y-83344828D01*
X121931034Y-85068966D01*
X123655172Y-85068966D01*
X123655172Y-83344828D01*
X121931034Y-83344828D01*
X121586207Y-83344828D01*
X121586207Y-83000000D01*
X124000000Y-83000000D01*
X124000000Y-83344828D01*
X124000000Y-85068966D01*
G37*
G36*
X118137931Y-85068966D02*
G01*
X117793103Y-85068966D01*
X117793103Y-84724138D01*
X118137931Y-84724138D01*
X118137931Y-85068966D01*
G37*
G36*
X117793103Y-84724138D02*
G01*
X117103448Y-84724138D01*
X117103448Y-84379310D01*
X117793103Y-84379310D01*
X117793103Y-84724138D01*
G37*
G36*
X118482759Y-84034483D02*
G01*
X118482759Y-84379310D01*
X118482759Y-84724138D01*
X118137931Y-84724138D01*
X118137931Y-84379310D01*
X117793103Y-84379310D01*
X117793103Y-84034483D01*
X118137931Y-84034483D01*
X118137931Y-83344828D01*
X118482759Y-83344828D01*
X118482759Y-84034483D01*
G37*
G36*
X120206897Y-84724138D02*
G01*
X119862069Y-84724138D01*
X119862069Y-84379310D01*
X120206897Y-84379310D01*
X120206897Y-84724138D01*
G37*
G36*
X120896552Y-84724138D02*
G01*
X120551724Y-84724138D01*
X120551724Y-84379310D01*
X120896552Y-84379310D01*
X120896552Y-84724138D01*
G37*
G36*
X117448276Y-83689655D02*
G01*
X117793103Y-83689655D01*
X117793103Y-84034483D01*
X117103448Y-84034483D01*
X117103448Y-84379310D01*
X116758621Y-84379310D01*
X116758621Y-84034483D01*
X116758621Y-83689655D01*
X117103448Y-83689655D01*
X117103448Y-83344828D01*
X117448276Y-83344828D01*
X117448276Y-83689655D01*
G37*
G36*
X119172414Y-83344828D02*
G01*
X119517241Y-83344828D01*
X119517241Y-83689655D01*
X119862069Y-83689655D01*
X119862069Y-84379310D01*
X119172414Y-84379310D01*
X119172414Y-83689655D01*
X118827586Y-83689655D01*
X118827586Y-83344828D01*
X118827586Y-83000000D01*
X119172414Y-83000000D01*
X119172414Y-83344828D01*
G37*
G36*
X120896552Y-83689655D02*
G01*
X120551724Y-83689655D01*
X120551724Y-84034483D01*
X120206897Y-84034483D01*
X120206897Y-83689655D01*
X120206897Y-83344828D01*
X120896552Y-83344828D01*
X120896552Y-83689655D01*
G37*
G36*
X117793103Y-83344828D02*
G01*
X117448276Y-83344828D01*
X117448276Y-83000000D01*
X117793103Y-83000000D01*
X117793103Y-83344828D01*
G37*
G36*
X120206897Y-83344828D02*
G01*
X119517241Y-83344828D01*
X119517241Y-83000000D01*
X120206897Y-83000000D01*
X120206897Y-83344828D01*
G37*
G36*
X121241379Y-83344828D02*
G01*
X120896552Y-83344828D01*
X120896552Y-83000000D01*
X121241379Y-83000000D01*
X121241379Y-83344828D01*
G37*
D11*
X137696115Y-98872419D02*
X137696115Y-97872419D01*
X137267544Y-98872419D02*
X137267544Y-98348609D01*
X137267544Y-98348609D02*
X137315163Y-98253371D01*
X137315163Y-98253371D02*
X137410401Y-98205752D01*
X137410401Y-98205752D02*
X137553258Y-98205752D01*
X137553258Y-98205752D02*
X137648496Y-98253371D01*
X137648496Y-98253371D02*
X137696115Y-98300990D01*
X136934210Y-98205752D02*
X136553258Y-98205752D01*
X136791353Y-97872419D02*
X136791353Y-98729561D01*
X136791353Y-98729561D02*
X136743734Y-98824800D01*
X136743734Y-98824800D02*
X136648496Y-98872419D01*
X136648496Y-98872419D02*
X136553258Y-98872419D01*
X136362781Y-98205752D02*
X135981829Y-98205752D01*
X136219924Y-97872419D02*
X136219924Y-98729561D01*
X136219924Y-98729561D02*
X136172305Y-98824800D01*
X136172305Y-98824800D02*
X136077067Y-98872419D01*
X136077067Y-98872419D02*
X135981829Y-98872419D01*
X135648495Y-98205752D02*
X135648495Y-99205752D01*
X135648495Y-98253371D02*
X135553257Y-98205752D01*
X135553257Y-98205752D02*
X135362781Y-98205752D01*
X135362781Y-98205752D02*
X135267543Y-98253371D01*
X135267543Y-98253371D02*
X135219924Y-98300990D01*
X135219924Y-98300990D02*
X135172305Y-98396228D01*
X135172305Y-98396228D02*
X135172305Y-98681942D01*
X135172305Y-98681942D02*
X135219924Y-98777180D01*
X135219924Y-98777180D02*
X135267543Y-98824800D01*
X135267543Y-98824800D02*
X135362781Y-98872419D01*
X135362781Y-98872419D02*
X135553257Y-98872419D01*
X135553257Y-98872419D02*
X135648495Y-98824800D01*
X134791352Y-98824800D02*
X134696114Y-98872419D01*
X134696114Y-98872419D02*
X134505638Y-98872419D01*
X134505638Y-98872419D02*
X134410400Y-98824800D01*
X134410400Y-98824800D02*
X134362781Y-98729561D01*
X134362781Y-98729561D02*
X134362781Y-98681942D01*
X134362781Y-98681942D02*
X134410400Y-98586704D01*
X134410400Y-98586704D02*
X134505638Y-98539085D01*
X134505638Y-98539085D02*
X134648495Y-98539085D01*
X134648495Y-98539085D02*
X134743733Y-98491466D01*
X134743733Y-98491466D02*
X134791352Y-98396228D01*
X134791352Y-98396228D02*
X134791352Y-98348609D01*
X134791352Y-98348609D02*
X134743733Y-98253371D01*
X134743733Y-98253371D02*
X134648495Y-98205752D01*
X134648495Y-98205752D02*
X134505638Y-98205752D01*
X134505638Y-98205752D02*
X134410400Y-98253371D01*
X133934209Y-98777180D02*
X133886590Y-98824800D01*
X133886590Y-98824800D02*
X133934209Y-98872419D01*
X133934209Y-98872419D02*
X133981828Y-98824800D01*
X133981828Y-98824800D02*
X133934209Y-98777180D01*
X133934209Y-98777180D02*
X133934209Y-98872419D01*
X133934209Y-98253371D02*
X133886590Y-98300990D01*
X133886590Y-98300990D02*
X133934209Y-98348609D01*
X133934209Y-98348609D02*
X133981828Y-98300990D01*
X133981828Y-98300990D02*
X133934209Y-98253371D01*
X133934209Y-98253371D02*
X133934209Y-98348609D01*
X132743734Y-97824800D02*
X133600876Y-99110514D01*
X131696115Y-97824800D02*
X132553257Y-99110514D01*
X130934210Y-98205752D02*
X130934210Y-99015276D01*
X130934210Y-99015276D02*
X130981829Y-99110514D01*
X130981829Y-99110514D02*
X131029448Y-99158133D01*
X131029448Y-99158133D02*
X131124686Y-99205752D01*
X131124686Y-99205752D02*
X131267543Y-99205752D01*
X131267543Y-99205752D02*
X131362781Y-99158133D01*
X130934210Y-98824800D02*
X131029448Y-98872419D01*
X131029448Y-98872419D02*
X131219924Y-98872419D01*
X131219924Y-98872419D02*
X131315162Y-98824800D01*
X131315162Y-98824800D02*
X131362781Y-98777180D01*
X131362781Y-98777180D02*
X131410400Y-98681942D01*
X131410400Y-98681942D02*
X131410400Y-98396228D01*
X131410400Y-98396228D02*
X131362781Y-98300990D01*
X131362781Y-98300990D02*
X131315162Y-98253371D01*
X131315162Y-98253371D02*
X131219924Y-98205752D01*
X131219924Y-98205752D02*
X131029448Y-98205752D01*
X131029448Y-98205752D02*
X130934210Y-98253371D01*
X130458019Y-98872419D02*
X130458019Y-98205752D01*
X130458019Y-97872419D02*
X130505638Y-97920038D01*
X130505638Y-97920038D02*
X130458019Y-97967657D01*
X130458019Y-97967657D02*
X130410400Y-97920038D01*
X130410400Y-97920038D02*
X130458019Y-97872419D01*
X130458019Y-97872419D02*
X130458019Y-97967657D01*
X130124686Y-98205752D02*
X129743734Y-98205752D01*
X129981829Y-97872419D02*
X129981829Y-98729561D01*
X129981829Y-98729561D02*
X129934210Y-98824800D01*
X129934210Y-98824800D02*
X129838972Y-98872419D01*
X129838972Y-98872419D02*
X129743734Y-98872419D01*
X129410400Y-98872419D02*
X129410400Y-97872419D01*
X128981829Y-98872419D02*
X128981829Y-98348609D01*
X128981829Y-98348609D02*
X129029448Y-98253371D01*
X129029448Y-98253371D02*
X129124686Y-98205752D01*
X129124686Y-98205752D02*
X129267543Y-98205752D01*
X129267543Y-98205752D02*
X129362781Y-98253371D01*
X129362781Y-98253371D02*
X129410400Y-98300990D01*
X128077067Y-98205752D02*
X128077067Y-98872419D01*
X128505638Y-98205752D02*
X128505638Y-98729561D01*
X128505638Y-98729561D02*
X128458019Y-98824800D01*
X128458019Y-98824800D02*
X128362781Y-98872419D01*
X128362781Y-98872419D02*
X128219924Y-98872419D01*
X128219924Y-98872419D02*
X128124686Y-98824800D01*
X128124686Y-98824800D02*
X128077067Y-98777180D01*
X127600876Y-98872419D02*
X127600876Y-97872419D01*
X127600876Y-98253371D02*
X127505638Y-98205752D01*
X127505638Y-98205752D02*
X127315162Y-98205752D01*
X127315162Y-98205752D02*
X127219924Y-98253371D01*
X127219924Y-98253371D02*
X127172305Y-98300990D01*
X127172305Y-98300990D02*
X127124686Y-98396228D01*
X127124686Y-98396228D02*
X127124686Y-98681942D01*
X127124686Y-98681942D02*
X127172305Y-98777180D01*
X127172305Y-98777180D02*
X127219924Y-98824800D01*
X127219924Y-98824800D02*
X127315162Y-98872419D01*
X127315162Y-98872419D02*
X127505638Y-98872419D01*
X127505638Y-98872419D02*
X127600876Y-98824800D01*
X126696114Y-98777180D02*
X126648495Y-98824800D01*
X126648495Y-98824800D02*
X126696114Y-98872419D01*
X126696114Y-98872419D02*
X126743733Y-98824800D01*
X126743733Y-98824800D02*
X126696114Y-98777180D01*
X126696114Y-98777180D02*
X126696114Y-98872419D01*
X125791353Y-98824800D02*
X125886591Y-98872419D01*
X125886591Y-98872419D02*
X126077067Y-98872419D01*
X126077067Y-98872419D02*
X126172305Y-98824800D01*
X126172305Y-98824800D02*
X126219924Y-98777180D01*
X126219924Y-98777180D02*
X126267543Y-98681942D01*
X126267543Y-98681942D02*
X126267543Y-98396228D01*
X126267543Y-98396228D02*
X126219924Y-98300990D01*
X126219924Y-98300990D02*
X126172305Y-98253371D01*
X126172305Y-98253371D02*
X126077067Y-98205752D01*
X126077067Y-98205752D02*
X125886591Y-98205752D01*
X125886591Y-98205752D02*
X125791353Y-98253371D01*
X125219924Y-98872419D02*
X125315162Y-98824800D01*
X125315162Y-98824800D02*
X125362781Y-98777180D01*
X125362781Y-98777180D02*
X125410400Y-98681942D01*
X125410400Y-98681942D02*
X125410400Y-98396228D01*
X125410400Y-98396228D02*
X125362781Y-98300990D01*
X125362781Y-98300990D02*
X125315162Y-98253371D01*
X125315162Y-98253371D02*
X125219924Y-98205752D01*
X125219924Y-98205752D02*
X125077067Y-98205752D01*
X125077067Y-98205752D02*
X124981829Y-98253371D01*
X124981829Y-98253371D02*
X124934210Y-98300990D01*
X124934210Y-98300990D02*
X124886591Y-98396228D01*
X124886591Y-98396228D02*
X124886591Y-98681942D01*
X124886591Y-98681942D02*
X124934210Y-98777180D01*
X124934210Y-98777180D02*
X124981829Y-98824800D01*
X124981829Y-98824800D02*
X125077067Y-98872419D01*
X125077067Y-98872419D02*
X125219924Y-98872419D01*
X124458019Y-98872419D02*
X124458019Y-98205752D01*
X124458019Y-98300990D02*
X124410400Y-98253371D01*
X124410400Y-98253371D02*
X124315162Y-98205752D01*
X124315162Y-98205752D02*
X124172305Y-98205752D01*
X124172305Y-98205752D02*
X124077067Y-98253371D01*
X124077067Y-98253371D02*
X124029448Y-98348609D01*
X124029448Y-98348609D02*
X124029448Y-98872419D01*
X124029448Y-98348609D02*
X123981829Y-98253371D01*
X123981829Y-98253371D02*
X123886591Y-98205752D01*
X123886591Y-98205752D02*
X123743734Y-98205752D01*
X123743734Y-98205752D02*
X123648495Y-98253371D01*
X123648495Y-98253371D02*
X123600876Y-98348609D01*
X123600876Y-98348609D02*
X123600876Y-98872419D01*
X122410401Y-97824800D02*
X123267543Y-99110514D01*
X122077067Y-98205752D02*
X122077067Y-99205752D01*
X122077067Y-98253371D02*
X121981829Y-98205752D01*
X121981829Y-98205752D02*
X121791353Y-98205752D01*
X121791353Y-98205752D02*
X121696115Y-98253371D01*
X121696115Y-98253371D02*
X121648496Y-98300990D01*
X121648496Y-98300990D02*
X121600877Y-98396228D01*
X121600877Y-98396228D02*
X121600877Y-98681942D01*
X121600877Y-98681942D02*
X121648496Y-98777180D01*
X121648496Y-98777180D02*
X121696115Y-98824800D01*
X121696115Y-98824800D02*
X121791353Y-98872419D01*
X121791353Y-98872419D02*
X121981829Y-98872419D01*
X121981829Y-98872419D02*
X122077067Y-98824800D01*
X120791353Y-98824800D02*
X120886591Y-98872419D01*
X120886591Y-98872419D02*
X121077067Y-98872419D01*
X121077067Y-98872419D02*
X121172305Y-98824800D01*
X121172305Y-98824800D02*
X121219924Y-98729561D01*
X121219924Y-98729561D02*
X121219924Y-98348609D01*
X121219924Y-98348609D02*
X121172305Y-98253371D01*
X121172305Y-98253371D02*
X121077067Y-98205752D01*
X121077067Y-98205752D02*
X120886591Y-98205752D01*
X120886591Y-98205752D02*
X120791353Y-98253371D01*
X120791353Y-98253371D02*
X120743734Y-98348609D01*
X120743734Y-98348609D02*
X120743734Y-98443847D01*
X120743734Y-98443847D02*
X121219924Y-98539085D01*
X120172305Y-98872419D02*
X120267543Y-98824800D01*
X120267543Y-98824800D02*
X120315162Y-98729561D01*
X120315162Y-98729561D02*
X120315162Y-97872419D01*
X119648495Y-98872419D02*
X119743733Y-98824800D01*
X119743733Y-98824800D02*
X119791352Y-98729561D01*
X119791352Y-98729561D02*
X119791352Y-97872419D01*
X118886590Y-98824800D02*
X118981828Y-98872419D01*
X118981828Y-98872419D02*
X119172304Y-98872419D01*
X119172304Y-98872419D02*
X119267542Y-98824800D01*
X119267542Y-98824800D02*
X119315161Y-98729561D01*
X119315161Y-98729561D02*
X119315161Y-98348609D01*
X119315161Y-98348609D02*
X119267542Y-98253371D01*
X119267542Y-98253371D02*
X119172304Y-98205752D01*
X119172304Y-98205752D02*
X118981828Y-98205752D01*
X118981828Y-98205752D02*
X118886590Y-98253371D01*
X118886590Y-98253371D02*
X118838971Y-98348609D01*
X118838971Y-98348609D02*
X118838971Y-98443847D01*
X118838971Y-98443847D02*
X119315161Y-98539085D01*
X118410399Y-98872419D02*
X118410399Y-98205752D01*
X118410399Y-98300990D02*
X118362780Y-98253371D01*
X118362780Y-98253371D02*
X118267542Y-98205752D01*
X118267542Y-98205752D02*
X118124685Y-98205752D01*
X118124685Y-98205752D02*
X118029447Y-98253371D01*
X118029447Y-98253371D02*
X117981828Y-98348609D01*
X117981828Y-98348609D02*
X117981828Y-98872419D01*
X117981828Y-98348609D02*
X117934209Y-98253371D01*
X117934209Y-98253371D02*
X117838971Y-98205752D01*
X117838971Y-98205752D02*
X117696114Y-98205752D01*
X117696114Y-98205752D02*
X117600875Y-98253371D01*
X117600875Y-98253371D02*
X117553256Y-98348609D01*
X117553256Y-98348609D02*
X117553256Y-98872419D01*
X116648495Y-98872419D02*
X116648495Y-98348609D01*
X116648495Y-98348609D02*
X116696114Y-98253371D01*
X116696114Y-98253371D02*
X116791352Y-98205752D01*
X116791352Y-98205752D02*
X116981828Y-98205752D01*
X116981828Y-98205752D02*
X117077066Y-98253371D01*
X116648495Y-98824800D02*
X116743733Y-98872419D01*
X116743733Y-98872419D02*
X116981828Y-98872419D01*
X116981828Y-98872419D02*
X117077066Y-98824800D01*
X117077066Y-98824800D02*
X117124685Y-98729561D01*
X117124685Y-98729561D02*
X117124685Y-98634323D01*
X117124685Y-98634323D02*
X117077066Y-98539085D01*
X117077066Y-98539085D02*
X116981828Y-98491466D01*
X116981828Y-98491466D02*
X116743733Y-98491466D01*
X116743733Y-98491466D02*
X116648495Y-98443847D01*
X116315161Y-98205752D02*
X115934209Y-98205752D01*
X116172304Y-97872419D02*
X116172304Y-98729561D01*
X116172304Y-98729561D02*
X116124685Y-98824800D01*
X116124685Y-98824800D02*
X116029447Y-98872419D01*
X116029447Y-98872419D02*
X115934209Y-98872419D01*
X115600875Y-98872419D02*
X115600875Y-98205752D01*
X115600875Y-98396228D02*
X115553256Y-98300990D01*
X115553256Y-98300990D02*
X115505637Y-98253371D01*
X115505637Y-98253371D02*
X115410399Y-98205752D01*
X115410399Y-98205752D02*
X115315161Y-98205752D01*
X114838970Y-98872419D02*
X114934208Y-98824800D01*
X114934208Y-98824800D02*
X114981827Y-98777180D01*
X114981827Y-98777180D02*
X115029446Y-98681942D01*
X115029446Y-98681942D02*
X115029446Y-98396228D01*
X115029446Y-98396228D02*
X114981827Y-98300990D01*
X114981827Y-98300990D02*
X114934208Y-98253371D01*
X114934208Y-98253371D02*
X114838970Y-98205752D01*
X114838970Y-98205752D02*
X114696113Y-98205752D01*
X114696113Y-98205752D02*
X114600875Y-98253371D01*
X114600875Y-98253371D02*
X114553256Y-98300990D01*
X114553256Y-98300990D02*
X114505637Y-98396228D01*
X114505637Y-98396228D02*
X114505637Y-98681942D01*
X114505637Y-98681942D02*
X114553256Y-98777180D01*
X114553256Y-98777180D02*
X114600875Y-98824800D01*
X114600875Y-98824800D02*
X114696113Y-98872419D01*
X114696113Y-98872419D02*
X114838970Y-98872419D01*
X114124684Y-98824800D02*
X114029446Y-98872419D01*
X114029446Y-98872419D02*
X113838970Y-98872419D01*
X113838970Y-98872419D02*
X113743732Y-98824800D01*
X113743732Y-98824800D02*
X113696113Y-98729561D01*
X113696113Y-98729561D02*
X113696113Y-98681942D01*
X113696113Y-98681942D02*
X113743732Y-98586704D01*
X113743732Y-98586704D02*
X113838970Y-98539085D01*
X113838970Y-98539085D02*
X113981827Y-98539085D01*
X113981827Y-98539085D02*
X114077065Y-98491466D01*
X114077065Y-98491466D02*
X114124684Y-98396228D01*
X114124684Y-98396228D02*
X114124684Y-98348609D01*
X114124684Y-98348609D02*
X114077065Y-98253371D01*
X114077065Y-98253371D02*
X113981827Y-98205752D01*
X113981827Y-98205752D02*
X113838970Y-98205752D01*
X113838970Y-98205752D02*
X113743732Y-98253371D01*
X112886589Y-98824800D02*
X112981827Y-98872419D01*
X112981827Y-98872419D02*
X113172303Y-98872419D01*
X113172303Y-98872419D02*
X113267541Y-98824800D01*
X113267541Y-98824800D02*
X113315160Y-98729561D01*
X113315160Y-98729561D02*
X113315160Y-98348609D01*
X113315160Y-98348609D02*
X113267541Y-98253371D01*
X113267541Y-98253371D02*
X113172303Y-98205752D01*
X113172303Y-98205752D02*
X112981827Y-98205752D01*
X112981827Y-98205752D02*
X112886589Y-98253371D01*
X112886589Y-98253371D02*
X112838970Y-98348609D01*
X112838970Y-98348609D02*
X112838970Y-98443847D01*
X112838970Y-98443847D02*
X113315160Y-98539085D01*
X111696113Y-97824800D02*
X112553255Y-99110514D01*
X111410398Y-98824800D02*
X111267541Y-98872419D01*
X111267541Y-98872419D02*
X111029446Y-98872419D01*
X111029446Y-98872419D02*
X110934208Y-98824800D01*
X110934208Y-98824800D02*
X110886589Y-98777180D01*
X110886589Y-98777180D02*
X110838970Y-98681942D01*
X110838970Y-98681942D02*
X110838970Y-98586704D01*
X110838970Y-98586704D02*
X110886589Y-98491466D01*
X110886589Y-98491466D02*
X110934208Y-98443847D01*
X110934208Y-98443847D02*
X111029446Y-98396228D01*
X111029446Y-98396228D02*
X111219922Y-98348609D01*
X111219922Y-98348609D02*
X111315160Y-98300990D01*
X111315160Y-98300990D02*
X111362779Y-98253371D01*
X111362779Y-98253371D02*
X111410398Y-98158133D01*
X111410398Y-98158133D02*
X111410398Y-98062895D01*
X111410398Y-98062895D02*
X111362779Y-97967657D01*
X111362779Y-97967657D02*
X111315160Y-97920038D01*
X111315160Y-97920038D02*
X111219922Y-97872419D01*
X111219922Y-97872419D02*
X110981827Y-97872419D01*
X110981827Y-97872419D02*
X110838970Y-97920038D01*
X110410398Y-98872419D02*
X110410398Y-98205752D01*
X110410398Y-97872419D02*
X110458017Y-97920038D01*
X110458017Y-97920038D02*
X110410398Y-97967657D01*
X110410398Y-97967657D02*
X110362779Y-97920038D01*
X110362779Y-97920038D02*
X110410398Y-97872419D01*
X110410398Y-97872419D02*
X110410398Y-97967657D01*
X109505637Y-98824800D02*
X109600875Y-98872419D01*
X109600875Y-98872419D02*
X109791351Y-98872419D01*
X109791351Y-98872419D02*
X109886589Y-98824800D01*
X109886589Y-98824800D02*
X109934208Y-98777180D01*
X109934208Y-98777180D02*
X109981827Y-98681942D01*
X109981827Y-98681942D02*
X109981827Y-98396228D01*
X109981827Y-98396228D02*
X109934208Y-98300990D01*
X109934208Y-98300990D02*
X109886589Y-98253371D01*
X109886589Y-98253371D02*
X109791351Y-98205752D01*
X109791351Y-98205752D02*
X109600875Y-98205752D01*
X109600875Y-98205752D02*
X109505637Y-98253371D01*
X109077065Y-98872419D02*
X109077065Y-97872419D01*
X108648494Y-98872419D02*
X108648494Y-98348609D01*
X108648494Y-98348609D02*
X108696113Y-98253371D01*
X108696113Y-98253371D02*
X108791351Y-98205752D01*
X108791351Y-98205752D02*
X108934208Y-98205752D01*
X108934208Y-98205752D02*
X109029446Y-98253371D01*
X109029446Y-98253371D02*
X109077065Y-98300990D01*
X107791351Y-98824800D02*
X107886589Y-98872419D01*
X107886589Y-98872419D02*
X108077065Y-98872419D01*
X108077065Y-98872419D02*
X108172303Y-98824800D01*
X108172303Y-98824800D02*
X108219922Y-98729561D01*
X108219922Y-98729561D02*
X108219922Y-98348609D01*
X108219922Y-98348609D02*
X108172303Y-98253371D01*
X108172303Y-98253371D02*
X108077065Y-98205752D01*
X108077065Y-98205752D02*
X107886589Y-98205752D01*
X107886589Y-98205752D02*
X107791351Y-98253371D01*
X107791351Y-98253371D02*
X107743732Y-98348609D01*
X107743732Y-98348609D02*
X107743732Y-98443847D01*
X107743732Y-98443847D02*
X108219922Y-98539085D01*
X107315160Y-98872419D02*
X107315160Y-98205752D01*
X107315160Y-98396228D02*
X107267541Y-98300990D01*
X107267541Y-98300990D02*
X107219922Y-98253371D01*
X107219922Y-98253371D02*
X107124684Y-98205752D01*
X107124684Y-98205752D02*
X107029446Y-98205752D01*
X106267541Y-98205752D02*
X106267541Y-98872419D01*
X106696112Y-98205752D02*
X106696112Y-98729561D01*
X106696112Y-98729561D02*
X106648493Y-98824800D01*
X106648493Y-98824800D02*
X106553255Y-98872419D01*
X106553255Y-98872419D02*
X106410398Y-98872419D01*
X106410398Y-98872419D02*
X106315160Y-98824800D01*
X106315160Y-98824800D02*
X106267541Y-98777180D01*
X105791350Y-98205752D02*
X105791350Y-98872419D01*
X105791350Y-98300990D02*
X105743731Y-98253371D01*
X105743731Y-98253371D02*
X105648493Y-98205752D01*
X105648493Y-98205752D02*
X105505636Y-98205752D01*
X105505636Y-98205752D02*
X105410398Y-98253371D01*
X105410398Y-98253371D02*
X105362779Y-98348609D01*
X105362779Y-98348609D02*
X105362779Y-98872419D01*
X104458017Y-98205752D02*
X104458017Y-99015276D01*
X104458017Y-99015276D02*
X104505636Y-99110514D01*
X104505636Y-99110514D02*
X104553255Y-99158133D01*
X104553255Y-99158133D02*
X104648493Y-99205752D01*
X104648493Y-99205752D02*
X104791350Y-99205752D01*
X104791350Y-99205752D02*
X104886588Y-99158133D01*
X104458017Y-98824800D02*
X104553255Y-98872419D01*
X104553255Y-98872419D02*
X104743731Y-98872419D01*
X104743731Y-98872419D02*
X104838969Y-98824800D01*
X104838969Y-98824800D02*
X104886588Y-98777180D01*
X104886588Y-98777180D02*
X104934207Y-98681942D01*
X104934207Y-98681942D02*
X104934207Y-98396228D01*
X104934207Y-98396228D02*
X104886588Y-98300990D01*
X104886588Y-98300990D02*
X104838969Y-98253371D01*
X104838969Y-98253371D02*
X104743731Y-98205752D01*
X104743731Y-98205752D02*
X104553255Y-98205752D01*
X104553255Y-98205752D02*
X104458017Y-98253371D01*
X104029445Y-98824800D02*
X103934207Y-98872419D01*
X103934207Y-98872419D02*
X103743731Y-98872419D01*
X103743731Y-98872419D02*
X103648493Y-98824800D01*
X103648493Y-98824800D02*
X103600874Y-98729561D01*
X103600874Y-98729561D02*
X103600874Y-98681942D01*
X103600874Y-98681942D02*
X103648493Y-98586704D01*
X103648493Y-98586704D02*
X103743731Y-98539085D01*
X103743731Y-98539085D02*
X103886588Y-98539085D01*
X103886588Y-98539085D02*
X103981826Y-98491466D01*
X103981826Y-98491466D02*
X104029445Y-98396228D01*
X104029445Y-98396228D02*
X104029445Y-98348609D01*
X104029445Y-98348609D02*
X103981826Y-98253371D01*
X103981826Y-98253371D02*
X103886588Y-98205752D01*
X103886588Y-98205752D02*
X103743731Y-98205752D01*
X103743731Y-98205752D02*
X103648493Y-98253371D01*
X103172302Y-98872419D02*
X103172302Y-97872419D01*
X103077064Y-98491466D02*
X102791350Y-98872419D01*
X102791350Y-98205752D02*
X103172302Y-98586704D01*
X101934207Y-98872419D02*
X101934207Y-98348609D01*
X101934207Y-98348609D02*
X101981826Y-98253371D01*
X101981826Y-98253371D02*
X102077064Y-98205752D01*
X102077064Y-98205752D02*
X102267540Y-98205752D01*
X102267540Y-98205752D02*
X102362778Y-98253371D01*
X101934207Y-98824800D02*
X102029445Y-98872419D01*
X102029445Y-98872419D02*
X102267540Y-98872419D01*
X102267540Y-98872419D02*
X102362778Y-98824800D01*
X102362778Y-98824800D02*
X102410397Y-98729561D01*
X102410397Y-98729561D02*
X102410397Y-98634323D01*
X102410397Y-98634323D02*
X102362778Y-98539085D01*
X102362778Y-98539085D02*
X102267540Y-98491466D01*
X102267540Y-98491466D02*
X102029445Y-98491466D01*
X102029445Y-98491466D02*
X101934207Y-98443847D01*
X101458016Y-98872419D02*
X101458016Y-98205752D01*
X101458016Y-98396228D02*
X101410397Y-98300990D01*
X101410397Y-98300990D02*
X101362778Y-98253371D01*
X101362778Y-98253371D02*
X101267540Y-98205752D01*
X101267540Y-98205752D02*
X101172302Y-98205752D01*
X100981825Y-98205752D02*
X100600873Y-98205752D01*
X100838968Y-97872419D02*
X100838968Y-98729561D01*
X100838968Y-98729561D02*
X100791349Y-98824800D01*
X100791349Y-98824800D02*
X100696111Y-98872419D01*
X100696111Y-98872419D02*
X100600873Y-98872419D01*
X99886587Y-98824800D02*
X99981825Y-98872419D01*
X99981825Y-98872419D02*
X100172301Y-98872419D01*
X100172301Y-98872419D02*
X100267539Y-98824800D01*
X100267539Y-98824800D02*
X100315158Y-98729561D01*
X100315158Y-98729561D02*
X100315158Y-98348609D01*
X100315158Y-98348609D02*
X100267539Y-98253371D01*
X100267539Y-98253371D02*
X100172301Y-98205752D01*
X100172301Y-98205752D02*
X99981825Y-98205752D01*
X99981825Y-98205752D02*
X99886587Y-98253371D01*
X99886587Y-98253371D02*
X99838968Y-98348609D01*
X99838968Y-98348609D02*
X99838968Y-98443847D01*
X99838968Y-98443847D02*
X100315158Y-98539085D01*
M02*
