%TF.GenerationSoftware,KiCad,Pcbnew,10.0.0-10.0.0~ubuntu24.04.1*%
%TF.CreationDate,2026-03-27T20:48:13+01:00*%
%TF.ProjectId,Sicherungskarte,53696368-6572-4756-9e67-736b61727465,V1.0*%
%TF.SameCoordinates,Original*%
%TF.FileFunction,Legend,Top*%
%TF.FilePolarity,Positive*%
%FSLAX46Y46*%
G04 Gerber Fmt 4.6, Leading zero omitted, Abs format (unit mm)*
G04 Created by KiCad (PCBNEW 10.0.0-10.0.0~ubuntu24.04.1) date 2026-03-27 20:48:13*
%MOMM*%
%LPD*%
G01*
G04 APERTURE LIST*
%ADD10C,0.150000*%
%ADD11C,0.100000*%
%ADD12C,0.127000*%
%ADD13C,0.200000*%
G04 APERTURE END LIST*
D10*
X102486009Y-95318333D02*
X102486009Y-95651666D01*
X103009819Y-95651666D02*
X102009819Y-95651666D01*
X102009819Y-95651666D02*
X102009819Y-95175476D01*
X102105057Y-94842142D02*
X102057438Y-94794523D01*
X102057438Y-94794523D02*
X102009819Y-94699285D01*
X102009819Y-94699285D02*
X102009819Y-94461190D01*
X102009819Y-94461190D02*
X102057438Y-94365952D01*
X102057438Y-94365952D02*
X102105057Y-94318333D01*
X102105057Y-94318333D02*
X102200295Y-94270714D01*
X102200295Y-94270714D02*
X102295533Y-94270714D01*
X102295533Y-94270714D02*
X102438390Y-94318333D01*
X102438390Y-94318333D02*
X103009819Y-94889761D01*
X103009819Y-94889761D02*
X103009819Y-94270714D01*
X131333333Y-76145180D02*
X131333333Y-75430895D01*
X131333333Y-75430895D02*
X131380952Y-75288038D01*
X131380952Y-75288038D02*
X131476190Y-75192800D01*
X131476190Y-75192800D02*
X131619047Y-75145180D01*
X131619047Y-75145180D02*
X131714285Y-75145180D01*
X130428571Y-75811847D02*
X130428571Y-75145180D01*
X130666666Y-76192800D02*
X130904761Y-75478514D01*
X130904761Y-75478514D02*
X130285714Y-75478514D01*
X107333333Y-76145180D02*
X107333333Y-75430895D01*
X107333333Y-75430895D02*
X107380952Y-75288038D01*
X107380952Y-75288038D02*
X107476190Y-75192800D01*
X107476190Y-75192800D02*
X107619047Y-75145180D01*
X107619047Y-75145180D02*
X107714285Y-75145180D01*
X106904761Y-76049942D02*
X106857142Y-76097561D01*
X106857142Y-76097561D02*
X106761904Y-76145180D01*
X106761904Y-76145180D02*
X106523809Y-76145180D01*
X106523809Y-76145180D02*
X106428571Y-76097561D01*
X106428571Y-76097561D02*
X106380952Y-76049942D01*
X106380952Y-76049942D02*
X106333333Y-75954704D01*
X106333333Y-75954704D02*
X106333333Y-75859466D01*
X106333333Y-75859466D02*
X106380952Y-75716609D01*
X106380952Y-75716609D02*
X106952380Y-75145180D01*
X106952380Y-75145180D02*
X106333333Y-75145180D01*
D11*
X144324800Y-101743734D02*
X144372419Y-101600877D01*
X144372419Y-101600877D02*
X144372419Y-101362782D01*
X144372419Y-101362782D02*
X144324800Y-101267544D01*
X144324800Y-101267544D02*
X144277180Y-101219925D01*
X144277180Y-101219925D02*
X144181942Y-101172306D01*
X144181942Y-101172306D02*
X144086704Y-101172306D01*
X144086704Y-101172306D02*
X143991466Y-101219925D01*
X143991466Y-101219925D02*
X143943847Y-101267544D01*
X143943847Y-101267544D02*
X143896228Y-101362782D01*
X143896228Y-101362782D02*
X143848609Y-101553258D01*
X143848609Y-101553258D02*
X143800990Y-101648496D01*
X143800990Y-101648496D02*
X143753371Y-101696115D01*
X143753371Y-101696115D02*
X143658133Y-101743734D01*
X143658133Y-101743734D02*
X143562895Y-101743734D01*
X143562895Y-101743734D02*
X143467657Y-101696115D01*
X143467657Y-101696115D02*
X143420038Y-101648496D01*
X143420038Y-101648496D02*
X143372419Y-101553258D01*
X143372419Y-101553258D02*
X143372419Y-101315163D01*
X143372419Y-101315163D02*
X143420038Y-101172306D01*
X144372419Y-100743734D02*
X143705752Y-100743734D01*
X143372419Y-100743734D02*
X143420038Y-100791353D01*
X143420038Y-100791353D02*
X143467657Y-100743734D01*
X143467657Y-100743734D02*
X143420038Y-100696115D01*
X143420038Y-100696115D02*
X143372419Y-100743734D01*
X143372419Y-100743734D02*
X143467657Y-100743734D01*
X144324800Y-99838973D02*
X144372419Y-99934211D01*
X144372419Y-99934211D02*
X144372419Y-100124687D01*
X144372419Y-100124687D02*
X144324800Y-100219925D01*
X144324800Y-100219925D02*
X144277180Y-100267544D01*
X144277180Y-100267544D02*
X144181942Y-100315163D01*
X144181942Y-100315163D02*
X143896228Y-100315163D01*
X143896228Y-100315163D02*
X143800990Y-100267544D01*
X143800990Y-100267544D02*
X143753371Y-100219925D01*
X143753371Y-100219925D02*
X143705752Y-100124687D01*
X143705752Y-100124687D02*
X143705752Y-99934211D01*
X143705752Y-99934211D02*
X143753371Y-99838973D01*
X144372419Y-99410401D02*
X143372419Y-99410401D01*
X144372419Y-98981830D02*
X143848609Y-98981830D01*
X143848609Y-98981830D02*
X143753371Y-99029449D01*
X143753371Y-99029449D02*
X143705752Y-99124687D01*
X143705752Y-99124687D02*
X143705752Y-99267544D01*
X143705752Y-99267544D02*
X143753371Y-99362782D01*
X143753371Y-99362782D02*
X143800990Y-99410401D01*
X144324800Y-98124687D02*
X144372419Y-98219925D01*
X144372419Y-98219925D02*
X144372419Y-98410401D01*
X144372419Y-98410401D02*
X144324800Y-98505639D01*
X144324800Y-98505639D02*
X144229561Y-98553258D01*
X144229561Y-98553258D02*
X143848609Y-98553258D01*
X143848609Y-98553258D02*
X143753371Y-98505639D01*
X143753371Y-98505639D02*
X143705752Y-98410401D01*
X143705752Y-98410401D02*
X143705752Y-98219925D01*
X143705752Y-98219925D02*
X143753371Y-98124687D01*
X143753371Y-98124687D02*
X143848609Y-98077068D01*
X143848609Y-98077068D02*
X143943847Y-98077068D01*
X143943847Y-98077068D02*
X144039085Y-98553258D01*
X144372419Y-97648496D02*
X143705752Y-97648496D01*
X143896228Y-97648496D02*
X143800990Y-97600877D01*
X143800990Y-97600877D02*
X143753371Y-97553258D01*
X143753371Y-97553258D02*
X143705752Y-97458020D01*
X143705752Y-97458020D02*
X143705752Y-97362782D01*
X143705752Y-96600877D02*
X144372419Y-96600877D01*
X143705752Y-97029448D02*
X144229561Y-97029448D01*
X144229561Y-97029448D02*
X144324800Y-96981829D01*
X144324800Y-96981829D02*
X144372419Y-96886591D01*
X144372419Y-96886591D02*
X144372419Y-96743734D01*
X144372419Y-96743734D02*
X144324800Y-96648496D01*
X144324800Y-96648496D02*
X144277180Y-96600877D01*
X143705752Y-96124686D02*
X144372419Y-96124686D01*
X143800990Y-96124686D02*
X143753371Y-96077067D01*
X143753371Y-96077067D02*
X143705752Y-95981829D01*
X143705752Y-95981829D02*
X143705752Y-95838972D01*
X143705752Y-95838972D02*
X143753371Y-95743734D01*
X143753371Y-95743734D02*
X143848609Y-95696115D01*
X143848609Y-95696115D02*
X144372419Y-95696115D01*
X143705752Y-94791353D02*
X144515276Y-94791353D01*
X144515276Y-94791353D02*
X144610514Y-94838972D01*
X144610514Y-94838972D02*
X144658133Y-94886591D01*
X144658133Y-94886591D02*
X144705752Y-94981829D01*
X144705752Y-94981829D02*
X144705752Y-95124686D01*
X144705752Y-95124686D02*
X144658133Y-95219924D01*
X144324800Y-94791353D02*
X144372419Y-94886591D01*
X144372419Y-94886591D02*
X144372419Y-95077067D01*
X144372419Y-95077067D02*
X144324800Y-95172305D01*
X144324800Y-95172305D02*
X144277180Y-95219924D01*
X144277180Y-95219924D02*
X144181942Y-95267543D01*
X144181942Y-95267543D02*
X143896228Y-95267543D01*
X143896228Y-95267543D02*
X143800990Y-95219924D01*
X143800990Y-95219924D02*
X143753371Y-95172305D01*
X143753371Y-95172305D02*
X143705752Y-95077067D01*
X143705752Y-95077067D02*
X143705752Y-94886591D01*
X143705752Y-94886591D02*
X143753371Y-94791353D01*
X144324800Y-94362781D02*
X144372419Y-94267543D01*
X144372419Y-94267543D02*
X144372419Y-94077067D01*
X144372419Y-94077067D02*
X144324800Y-93981829D01*
X144324800Y-93981829D02*
X144229561Y-93934210D01*
X144229561Y-93934210D02*
X144181942Y-93934210D01*
X144181942Y-93934210D02*
X144086704Y-93981829D01*
X144086704Y-93981829D02*
X144039085Y-94077067D01*
X144039085Y-94077067D02*
X144039085Y-94219924D01*
X144039085Y-94219924D02*
X143991466Y-94315162D01*
X143991466Y-94315162D02*
X143896228Y-94362781D01*
X143896228Y-94362781D02*
X143848609Y-94362781D01*
X143848609Y-94362781D02*
X143753371Y-94315162D01*
X143753371Y-94315162D02*
X143705752Y-94219924D01*
X143705752Y-94219924D02*
X143705752Y-94077067D01*
X143705752Y-94077067D02*
X143753371Y-93981829D01*
X144372419Y-93505638D02*
X143372419Y-93505638D01*
X143991466Y-93410400D02*
X144372419Y-93124686D01*
X143705752Y-93124686D02*
X144086704Y-93505638D01*
X144372419Y-92267543D02*
X143848609Y-92267543D01*
X143848609Y-92267543D02*
X143753371Y-92315162D01*
X143753371Y-92315162D02*
X143705752Y-92410400D01*
X143705752Y-92410400D02*
X143705752Y-92600876D01*
X143705752Y-92600876D02*
X143753371Y-92696114D01*
X144324800Y-92267543D02*
X144372419Y-92362781D01*
X144372419Y-92362781D02*
X144372419Y-92600876D01*
X144372419Y-92600876D02*
X144324800Y-92696114D01*
X144324800Y-92696114D02*
X144229561Y-92743733D01*
X144229561Y-92743733D02*
X144134323Y-92743733D01*
X144134323Y-92743733D02*
X144039085Y-92696114D01*
X144039085Y-92696114D02*
X143991466Y-92600876D01*
X143991466Y-92600876D02*
X143991466Y-92362781D01*
X143991466Y-92362781D02*
X143943847Y-92267543D01*
X144372419Y-91791352D02*
X143705752Y-91791352D01*
X143896228Y-91791352D02*
X143800990Y-91743733D01*
X143800990Y-91743733D02*
X143753371Y-91696114D01*
X143753371Y-91696114D02*
X143705752Y-91600876D01*
X143705752Y-91600876D02*
X143705752Y-91505638D01*
X143705752Y-91315161D02*
X143705752Y-90934209D01*
X143372419Y-91172304D02*
X144229561Y-91172304D01*
X144229561Y-91172304D02*
X144324800Y-91124685D01*
X144324800Y-91124685D02*
X144372419Y-91029447D01*
X144372419Y-91029447D02*
X144372419Y-90934209D01*
X144324800Y-90219923D02*
X144372419Y-90315161D01*
X144372419Y-90315161D02*
X144372419Y-90505637D01*
X144372419Y-90505637D02*
X144324800Y-90600875D01*
X144324800Y-90600875D02*
X144229561Y-90648494D01*
X144229561Y-90648494D02*
X143848609Y-90648494D01*
X143848609Y-90648494D02*
X143753371Y-90600875D01*
X143753371Y-90600875D02*
X143705752Y-90505637D01*
X143705752Y-90505637D02*
X143705752Y-90315161D01*
X143705752Y-90315161D02*
X143753371Y-90219923D01*
X143753371Y-90219923D02*
X143848609Y-90172304D01*
X143848609Y-90172304D02*
X143943847Y-90172304D01*
X143943847Y-90172304D02*
X144039085Y-90648494D01*
X144467657Y-89981828D02*
X144467657Y-89219923D01*
X143467657Y-89029446D02*
X143420038Y-88981827D01*
X143420038Y-88981827D02*
X143372419Y-88886589D01*
X143372419Y-88886589D02*
X143372419Y-88648494D01*
X143372419Y-88648494D02*
X143420038Y-88553256D01*
X143420038Y-88553256D02*
X143467657Y-88505637D01*
X143467657Y-88505637D02*
X143562895Y-88458018D01*
X143562895Y-88458018D02*
X143658133Y-88458018D01*
X143658133Y-88458018D02*
X143800990Y-88505637D01*
X143800990Y-88505637D02*
X144372419Y-89077065D01*
X144372419Y-89077065D02*
X144372419Y-88458018D01*
X143372419Y-87838970D02*
X143372419Y-87743732D01*
X143372419Y-87743732D02*
X143420038Y-87648494D01*
X143420038Y-87648494D02*
X143467657Y-87600875D01*
X143467657Y-87600875D02*
X143562895Y-87553256D01*
X143562895Y-87553256D02*
X143753371Y-87505637D01*
X143753371Y-87505637D02*
X143991466Y-87505637D01*
X143991466Y-87505637D02*
X144181942Y-87553256D01*
X144181942Y-87553256D02*
X144277180Y-87600875D01*
X144277180Y-87600875D02*
X144324800Y-87648494D01*
X144324800Y-87648494D02*
X144372419Y-87743732D01*
X144372419Y-87743732D02*
X144372419Y-87838970D01*
X144372419Y-87838970D02*
X144324800Y-87934208D01*
X144324800Y-87934208D02*
X144277180Y-87981827D01*
X144277180Y-87981827D02*
X144181942Y-88029446D01*
X144181942Y-88029446D02*
X143991466Y-88077065D01*
X143991466Y-88077065D02*
X143753371Y-88077065D01*
X143753371Y-88077065D02*
X143562895Y-88029446D01*
X143562895Y-88029446D02*
X143467657Y-87981827D01*
X143467657Y-87981827D02*
X143420038Y-87934208D01*
X143420038Y-87934208D02*
X143372419Y-87838970D01*
X143467657Y-87124684D02*
X143420038Y-87077065D01*
X143420038Y-87077065D02*
X143372419Y-86981827D01*
X143372419Y-86981827D02*
X143372419Y-86743732D01*
X143372419Y-86743732D02*
X143420038Y-86648494D01*
X143420038Y-86648494D02*
X143467657Y-86600875D01*
X143467657Y-86600875D02*
X143562895Y-86553256D01*
X143562895Y-86553256D02*
X143658133Y-86553256D01*
X143658133Y-86553256D02*
X143800990Y-86600875D01*
X143800990Y-86600875D02*
X144372419Y-87172303D01*
X144372419Y-87172303D02*
X144372419Y-86553256D01*
X143372419Y-85696113D02*
X143372419Y-85886589D01*
X143372419Y-85886589D02*
X143420038Y-85981827D01*
X143420038Y-85981827D02*
X143467657Y-86029446D01*
X143467657Y-86029446D02*
X143610514Y-86124684D01*
X143610514Y-86124684D02*
X143800990Y-86172303D01*
X143800990Y-86172303D02*
X144181942Y-86172303D01*
X144181942Y-86172303D02*
X144277180Y-86124684D01*
X144277180Y-86124684D02*
X144324800Y-86077065D01*
X144324800Y-86077065D02*
X144372419Y-85981827D01*
X144372419Y-85981827D02*
X144372419Y-85791351D01*
X144372419Y-85791351D02*
X144324800Y-85696113D01*
X144324800Y-85696113D02*
X144277180Y-85648494D01*
X144277180Y-85648494D02*
X144181942Y-85600875D01*
X144181942Y-85600875D02*
X143943847Y-85600875D01*
X143943847Y-85600875D02*
X143848609Y-85648494D01*
X143848609Y-85648494D02*
X143800990Y-85696113D01*
X143800990Y-85696113D02*
X143753371Y-85791351D01*
X143753371Y-85791351D02*
X143753371Y-85981827D01*
X143753371Y-85981827D02*
X143800990Y-86077065D01*
X143800990Y-86077065D02*
X143848609Y-86124684D01*
X143848609Y-86124684D02*
X143943847Y-86172303D01*
X143991466Y-85172303D02*
X143991466Y-84410399D01*
X143372419Y-83743732D02*
X143372419Y-83648494D01*
X143372419Y-83648494D02*
X143420038Y-83553256D01*
X143420038Y-83553256D02*
X143467657Y-83505637D01*
X143467657Y-83505637D02*
X143562895Y-83458018D01*
X143562895Y-83458018D02*
X143753371Y-83410399D01*
X143753371Y-83410399D02*
X143991466Y-83410399D01*
X143991466Y-83410399D02*
X144181942Y-83458018D01*
X144181942Y-83458018D02*
X144277180Y-83505637D01*
X144277180Y-83505637D02*
X144324800Y-83553256D01*
X144324800Y-83553256D02*
X144372419Y-83648494D01*
X144372419Y-83648494D02*
X144372419Y-83743732D01*
X144372419Y-83743732D02*
X144324800Y-83838970D01*
X144324800Y-83838970D02*
X144277180Y-83886589D01*
X144277180Y-83886589D02*
X144181942Y-83934208D01*
X144181942Y-83934208D02*
X143991466Y-83981827D01*
X143991466Y-83981827D02*
X143753371Y-83981827D01*
X143753371Y-83981827D02*
X143562895Y-83934208D01*
X143562895Y-83934208D02*
X143467657Y-83886589D01*
X143467657Y-83886589D02*
X143420038Y-83838970D01*
X143420038Y-83838970D02*
X143372419Y-83743732D01*
X143372419Y-83077065D02*
X143372419Y-82458018D01*
X143372419Y-82458018D02*
X143753371Y-82791351D01*
X143753371Y-82791351D02*
X143753371Y-82648494D01*
X143753371Y-82648494D02*
X143800990Y-82553256D01*
X143800990Y-82553256D02*
X143848609Y-82505637D01*
X143848609Y-82505637D02*
X143943847Y-82458018D01*
X143943847Y-82458018D02*
X144181942Y-82458018D01*
X144181942Y-82458018D02*
X144277180Y-82505637D01*
X144277180Y-82505637D02*
X144324800Y-82553256D01*
X144324800Y-82553256D02*
X144372419Y-82648494D01*
X144372419Y-82648494D02*
X144372419Y-82934208D01*
X144372419Y-82934208D02*
X144324800Y-83029446D01*
X144324800Y-83029446D02*
X144277180Y-83077065D01*
X143991466Y-82029446D02*
X143991466Y-81267542D01*
X143467657Y-80838970D02*
X143420038Y-80791351D01*
X143420038Y-80791351D02*
X143372419Y-80696113D01*
X143372419Y-80696113D02*
X143372419Y-80458018D01*
X143372419Y-80458018D02*
X143420038Y-80362780D01*
X143420038Y-80362780D02*
X143467657Y-80315161D01*
X143467657Y-80315161D02*
X143562895Y-80267542D01*
X143562895Y-80267542D02*
X143658133Y-80267542D01*
X143658133Y-80267542D02*
X143800990Y-80315161D01*
X143800990Y-80315161D02*
X144372419Y-80886589D01*
X144372419Y-80886589D02*
X144372419Y-80267542D01*
X143372419Y-79934208D02*
X143372419Y-79267542D01*
X143372419Y-79267542D02*
X144372419Y-79696113D01*
D10*
X130666666Y-99854819D02*
X130666666Y-100569104D01*
X130666666Y-100569104D02*
X130619047Y-100711961D01*
X130619047Y-100711961D02*
X130523809Y-100807200D01*
X130523809Y-100807200D02*
X130380952Y-100854819D01*
X130380952Y-100854819D02*
X130285714Y-100854819D01*
X131047619Y-99854819D02*
X131666666Y-99854819D01*
X131666666Y-99854819D02*
X131333333Y-100235771D01*
X131333333Y-100235771D02*
X131476190Y-100235771D01*
X131476190Y-100235771D02*
X131571428Y-100283390D01*
X131571428Y-100283390D02*
X131619047Y-100331009D01*
X131619047Y-100331009D02*
X131666666Y-100426247D01*
X131666666Y-100426247D02*
X131666666Y-100664342D01*
X131666666Y-100664342D02*
X131619047Y-100759580D01*
X131619047Y-100759580D02*
X131571428Y-100807200D01*
X131571428Y-100807200D02*
X131476190Y-100854819D01*
X131476190Y-100854819D02*
X131190476Y-100854819D01*
X131190476Y-100854819D02*
X131095238Y-100807200D01*
X131095238Y-100807200D02*
X131047619Y-100759580D01*
X134486009Y-95318333D02*
X134486009Y-95651666D01*
X135009819Y-95651666D02*
X134009819Y-95651666D01*
X134009819Y-95651666D02*
X134009819Y-95175476D01*
X134009819Y-94365952D02*
X134009819Y-94556428D01*
X134009819Y-94556428D02*
X134057438Y-94651666D01*
X134057438Y-94651666D02*
X134105057Y-94699285D01*
X134105057Y-94699285D02*
X134247914Y-94794523D01*
X134247914Y-94794523D02*
X134438390Y-94842142D01*
X134438390Y-94842142D02*
X134819342Y-94842142D01*
X134819342Y-94842142D02*
X134914580Y-94794523D01*
X134914580Y-94794523D02*
X134962200Y-94746904D01*
X134962200Y-94746904D02*
X135009819Y-94651666D01*
X135009819Y-94651666D02*
X135009819Y-94461190D01*
X135009819Y-94461190D02*
X134962200Y-94365952D01*
X134962200Y-94365952D02*
X134914580Y-94318333D01*
X134914580Y-94318333D02*
X134819342Y-94270714D01*
X134819342Y-94270714D02*
X134581247Y-94270714D01*
X134581247Y-94270714D02*
X134486009Y-94318333D01*
X134486009Y-94318333D02*
X134438390Y-94365952D01*
X134438390Y-94365952D02*
X134390771Y-94461190D01*
X134390771Y-94461190D02*
X134390771Y-94651666D01*
X134390771Y-94651666D02*
X134438390Y-94746904D01*
X134438390Y-94746904D02*
X134486009Y-94794523D01*
X134486009Y-94794523D02*
X134581247Y-94842142D01*
X126486009Y-95318333D02*
X126486009Y-95651666D01*
X127009819Y-95651666D02*
X126009819Y-95651666D01*
X126009819Y-95651666D02*
X126009819Y-95175476D01*
X126009819Y-94318333D02*
X126009819Y-94794523D01*
X126009819Y-94794523D02*
X126486009Y-94842142D01*
X126486009Y-94842142D02*
X126438390Y-94794523D01*
X126438390Y-94794523D02*
X126390771Y-94699285D01*
X126390771Y-94699285D02*
X126390771Y-94461190D01*
X126390771Y-94461190D02*
X126438390Y-94365952D01*
X126438390Y-94365952D02*
X126486009Y-94318333D01*
X126486009Y-94318333D02*
X126581247Y-94270714D01*
X126581247Y-94270714D02*
X126819342Y-94270714D01*
X126819342Y-94270714D02*
X126914580Y-94318333D01*
X126914580Y-94318333D02*
X126962200Y-94365952D01*
X126962200Y-94365952D02*
X127009819Y-94461190D01*
X127009819Y-94461190D02*
X127009819Y-94699285D01*
X127009819Y-94699285D02*
X126962200Y-94794523D01*
X126962200Y-94794523D02*
X126914580Y-94842142D01*
X118486009Y-95318333D02*
X118486009Y-95651666D01*
X119009819Y-95651666D02*
X118009819Y-95651666D01*
X118009819Y-95651666D02*
X118009819Y-95175476D01*
X118343152Y-94365952D02*
X119009819Y-94365952D01*
X117962200Y-94604047D02*
X118676485Y-94842142D01*
X118676485Y-94842142D02*
X118676485Y-94223095D01*
X110486009Y-95318333D02*
X110486009Y-95651666D01*
X111009819Y-95651666D02*
X110009819Y-95651666D01*
X110009819Y-95651666D02*
X110009819Y-95175476D01*
X110009819Y-94889761D02*
X110009819Y-94270714D01*
X110009819Y-94270714D02*
X110390771Y-94604047D01*
X110390771Y-94604047D02*
X110390771Y-94461190D01*
X110390771Y-94461190D02*
X110438390Y-94365952D01*
X110438390Y-94365952D02*
X110486009Y-94318333D01*
X110486009Y-94318333D02*
X110581247Y-94270714D01*
X110581247Y-94270714D02*
X110819342Y-94270714D01*
X110819342Y-94270714D02*
X110914580Y-94318333D01*
X110914580Y-94318333D02*
X110962200Y-94365952D01*
X110962200Y-94365952D02*
X111009819Y-94461190D01*
X111009819Y-94461190D02*
X111009819Y-94746904D01*
X111009819Y-94746904D02*
X110962200Y-94842142D01*
X110962200Y-94842142D02*
X110914580Y-94889761D01*
X106666666Y-99854819D02*
X106666666Y-100569104D01*
X106666666Y-100569104D02*
X106619047Y-100711961D01*
X106619047Y-100711961D02*
X106523809Y-100807200D01*
X106523809Y-100807200D02*
X106380952Y-100854819D01*
X106380952Y-100854819D02*
X106285714Y-100854819D01*
X107666666Y-100854819D02*
X107095238Y-100854819D01*
X107380952Y-100854819D02*
X107380952Y-99854819D01*
X107380952Y-99854819D02*
X107285714Y-99997676D01*
X107285714Y-99997676D02*
X107190476Y-100092914D01*
X107190476Y-100092914D02*
X107095238Y-100140533D01*
X94486009Y-95318333D02*
X94486009Y-95651666D01*
X95009819Y-95651666D02*
X94009819Y-95651666D01*
X94009819Y-95651666D02*
X94009819Y-95175476D01*
X95009819Y-94270714D02*
X95009819Y-94842142D01*
X95009819Y-94556428D02*
X94009819Y-94556428D01*
X94009819Y-94556428D02*
X94152676Y-94651666D01*
X94152676Y-94651666D02*
X94247914Y-94746904D01*
X94247914Y-94746904D02*
X94295533Y-94842142D01*
%TO.C,F2*%
D12*
X103635000Y-78095000D02*
X103635000Y-97905000D01*
X103635000Y-97905000D02*
X110365000Y-97905000D01*
X110365000Y-78095000D02*
X103635000Y-78095000D01*
X110365000Y-97905000D02*
X110365000Y-78095000D01*
%TO.C,J4*%
D13*
X123379989Y-62800007D02*
X123379989Y-62500007D01*
X123379989Y-65500007D02*
X123379989Y-62800007D01*
X123379989Y-71127442D02*
X123379989Y-65500007D01*
X123379989Y-71427260D02*
X123379989Y-71127442D01*
X123379989Y-71703499D02*
X123379989Y-71427260D01*
X123379989Y-71703499D02*
X123379989Y-72633390D01*
X123379989Y-73431487D02*
X123379989Y-72633390D01*
X123379989Y-73700007D02*
X123379989Y-73431487D01*
X123379989Y-73700007D02*
X138619989Y-73700007D01*
X138619989Y-62500007D02*
X123379989Y-62500007D01*
X138619989Y-62500007D02*
X138619989Y-62800007D01*
X138619989Y-62800007D02*
X138619989Y-64193007D01*
X138619989Y-64193007D02*
X138619989Y-64607007D01*
X138619989Y-64607007D02*
X138619989Y-65500007D01*
X138619989Y-64607007D02*
X138748680Y-64607007D01*
X138619989Y-65500007D02*
X138619989Y-71127442D01*
X138619989Y-71127442D02*
X138619989Y-71427260D01*
X138619989Y-71427260D02*
X138619989Y-71703499D01*
X138619989Y-72633390D02*
X138619989Y-71703499D01*
X138619989Y-72633390D02*
X138619989Y-73431487D01*
X138619989Y-73431487D02*
X138619989Y-73700007D01*
X138748680Y-64193007D02*
X138619989Y-64193007D01*
X138748680Y-64607007D02*
X138927015Y-64756967D01*
X138927015Y-64043048D02*
X138748680Y-64193007D01*
X138927015Y-64756967D02*
X139189989Y-64756967D01*
X139189989Y-64043048D02*
X138927015Y-64043048D01*
X139189989Y-64043048D02*
X139189989Y-64756967D01*
%TO.C,J2*%
X99379989Y-62800007D02*
X99379989Y-62500007D01*
X99379989Y-65500007D02*
X99379989Y-62800007D01*
X99379989Y-71127442D02*
X99379989Y-65500007D01*
X99379989Y-71427260D02*
X99379989Y-71127442D01*
X99379989Y-71703499D02*
X99379989Y-71427260D01*
X99379989Y-71703499D02*
X99379989Y-72633390D01*
X99379989Y-73431487D02*
X99379989Y-72633390D01*
X99379989Y-73700007D02*
X99379989Y-73431487D01*
X99379989Y-73700007D02*
X114619989Y-73700007D01*
X114619989Y-62500007D02*
X99379989Y-62500007D01*
X114619989Y-62500007D02*
X114619989Y-62800007D01*
X114619989Y-62800007D02*
X114619989Y-64193007D01*
X114619989Y-64193007D02*
X114619989Y-64607007D01*
X114619989Y-64607007D02*
X114619989Y-65500007D01*
X114619989Y-64607007D02*
X114748680Y-64607007D01*
X114619989Y-65500007D02*
X114619989Y-71127442D01*
X114619989Y-71127442D02*
X114619989Y-71427260D01*
X114619989Y-71427260D02*
X114619989Y-71703499D01*
X114619989Y-72633390D02*
X114619989Y-71703499D01*
X114619989Y-72633390D02*
X114619989Y-73431487D01*
X114619989Y-73431487D02*
X114619989Y-73700007D01*
X114748680Y-64193007D02*
X114619989Y-64193007D01*
X114748680Y-64607007D02*
X114927015Y-64756967D01*
X114927015Y-64043048D02*
X114748680Y-64193007D01*
X114927015Y-64756967D02*
X115189989Y-64756967D01*
X115189989Y-64043048D02*
X114927015Y-64043048D01*
X115189989Y-64043048D02*
X115189989Y-64756967D01*
%TO.C,J3*%
X122810011Y-111956952D02*
X122810011Y-111243033D01*
X122810011Y-111956952D02*
X123072985Y-111956952D01*
X123072985Y-111243033D02*
X122810011Y-111243033D01*
X123072985Y-111956952D02*
X123251320Y-111806993D01*
X123251320Y-111392993D02*
X123072985Y-111243033D01*
X123251320Y-111806993D02*
X123380011Y-111806993D01*
X123380011Y-102568513D02*
X123380011Y-102299993D01*
X123380011Y-103366610D02*
X123380011Y-102568513D01*
X123380011Y-103366610D02*
X123380011Y-104296501D01*
X123380011Y-104572740D02*
X123380011Y-104296501D01*
X123380011Y-104872558D02*
X123380011Y-104572740D01*
X123380011Y-110499993D02*
X123380011Y-104872558D01*
X123380011Y-111392993D02*
X123251320Y-111392993D01*
X123380011Y-111392993D02*
X123380011Y-110499993D01*
X123380011Y-111806993D02*
X123380011Y-111392993D01*
X123380011Y-113199993D02*
X123380011Y-111806993D01*
X123380011Y-113499993D02*
X123380011Y-113199993D01*
X123380011Y-113499993D02*
X138620011Y-113499993D01*
X138620011Y-102299993D02*
X123380011Y-102299993D01*
X138620011Y-102299993D02*
X138620011Y-102568513D01*
X138620011Y-102568513D02*
X138620011Y-103366610D01*
X138620011Y-104296501D02*
X138620011Y-103366610D01*
X138620011Y-104296501D02*
X138620011Y-104572740D01*
X138620011Y-104572740D02*
X138620011Y-104872558D01*
X138620011Y-104872558D02*
X138620011Y-110499993D01*
X138620011Y-110499993D02*
X138620011Y-113199993D01*
X138620011Y-113199993D02*
X138620011Y-113499993D01*
%TO.C,F6*%
D12*
X135635000Y-78095000D02*
X135635000Y-97905000D01*
X135635000Y-97905000D02*
X142365000Y-97905000D01*
X142365000Y-78095000D02*
X135635000Y-78095000D01*
X142365000Y-97905000D02*
X142365000Y-78095000D01*
%TO.C,F5*%
X127635000Y-78095000D02*
X127635000Y-97905000D01*
X127635000Y-97905000D02*
X134365000Y-97905000D01*
X134365000Y-78095000D02*
X127635000Y-78095000D01*
X134365000Y-97905000D02*
X134365000Y-78095000D01*
%TO.C,F4*%
X119635000Y-78095000D02*
X119635000Y-97905000D01*
X119635000Y-97905000D02*
X126365000Y-97905000D01*
X126365000Y-78095000D02*
X119635000Y-78095000D01*
X126365000Y-97905000D02*
X126365000Y-78095000D01*
%TO.C,F3*%
X111635000Y-78095000D02*
X111635000Y-97905000D01*
X111635000Y-97905000D02*
X118365000Y-97905000D01*
X118365000Y-78095000D02*
X111635000Y-78095000D01*
X118365000Y-97905000D02*
X118365000Y-78095000D01*
%TO.C,J1*%
D13*
X98810011Y-111956952D02*
X98810011Y-111243033D01*
X98810011Y-111956952D02*
X99072985Y-111956952D01*
X99072985Y-111243033D02*
X98810011Y-111243033D01*
X99072985Y-111956952D02*
X99251320Y-111806993D01*
X99251320Y-111392993D02*
X99072985Y-111243033D01*
X99251320Y-111806993D02*
X99380011Y-111806993D01*
X99380011Y-102568513D02*
X99380011Y-102299993D01*
X99380011Y-103366610D02*
X99380011Y-102568513D01*
X99380011Y-103366610D02*
X99380011Y-104296501D01*
X99380011Y-104572740D02*
X99380011Y-104296501D01*
X99380011Y-104872558D02*
X99380011Y-104572740D01*
X99380011Y-110499993D02*
X99380011Y-104872558D01*
X99380011Y-111392993D02*
X99251320Y-111392993D01*
X99380011Y-111392993D02*
X99380011Y-110499993D01*
X99380011Y-111806993D02*
X99380011Y-111392993D01*
X99380011Y-113199993D02*
X99380011Y-111806993D01*
X99380011Y-113499993D02*
X99380011Y-113199993D01*
X99380011Y-113499993D02*
X114620011Y-113499993D01*
X114620011Y-102299993D02*
X99380011Y-102299993D01*
X114620011Y-102299993D02*
X114620011Y-102568513D01*
X114620011Y-102568513D02*
X114620011Y-103366610D01*
X114620011Y-104296501D02*
X114620011Y-103366610D01*
X114620011Y-104296501D02*
X114620011Y-104572740D01*
X114620011Y-104572740D02*
X114620011Y-104872558D01*
X114620011Y-104872558D02*
X114620011Y-110499993D01*
X114620011Y-110499993D02*
X114620011Y-113199993D01*
X114620011Y-113199993D02*
X114620011Y-113499993D01*
%TO.C,F1*%
D12*
X95635000Y-78095000D02*
X95635000Y-97905000D01*
X95635000Y-97905000D02*
X102365000Y-97905000D01*
X102365000Y-78095000D02*
X95635000Y-78095000D01*
X102365000Y-97905000D02*
X102365000Y-78095000D01*
%TD*%
M02*
